<svg width="82" height="82" viewBox="0 0 82 82" fill="none" xmlns="http://www.w3.org/2000/svg">
<circle cx="41.0967" cy="41" r="40" stroke="white" stroke-opacity="0.2" stroke-width="1.5"/>
<path fill-rule="evenodd" clip-rule="evenodd" d="M33.5415 6.87756L13.2953 20.5606L4.87842 41.2459L13.6093 61.0324L34.2871 74.3473L65.0282 68.4757L77.0537 46.1664L69.5581 22.9938L51.775 8.98926L33.5415 6.87756Z" stroke="url(#paint0_linear_44_398)" stroke-width="1.5"/>
<path fill-rule="evenodd" clip-rule="evenodd" d="M29.5047 21.7809L33.5412 6.8775L13.4819 20.5101L29.5047 21.7809Z" stroke="url(#paint1_linear_44_398)" stroke-width="1.5"/>
<path fill-rule="evenodd" clip-rule="evenodd" d="M4.87793 41.2458L26.4565 37.0879L13.4817 20.5101L4.87793 41.2458Z" stroke="url(#paint2_linear_44_398)" stroke-width="1.5"/>
<path fill-rule="evenodd" clip-rule="evenodd" d="M29.5047 21.7808L26.4567 37.0878L13.4819 20.5101L29.5047 21.7808Z" stroke="url(#paint3_linear_44_398)" stroke-width="1.5"/>
<path fill-rule="evenodd" clip-rule="evenodd" d="M69.5578 22.9937L54.0171 23.3076L51.855 9.02844L69.5578 22.9937Z" stroke="url(#paint4_linear_44_398)" stroke-width="1.5"/>
<path fill-rule="evenodd" clip-rule="evenodd" d="M33.541 6.8775L41.7318 17.1669L51.8549 9.02845L33.541 6.8775Z" stroke="url(#paint5_linear_44_398)" stroke-width="1.5"/>
<path fill-rule="evenodd" clip-rule="evenodd" d="M29.5044 21.7809L41.7317 17.1669L33.5409 6.8775L29.5044 21.7809Z" stroke="url(#paint6_linear_44_398)" stroke-width="1.5"/>
<path fill-rule="evenodd" clip-rule="evenodd" d="M54.0172 23.3076L41.7319 17.1669L51.855 9.02844L54.0172 23.3076Z" stroke="url(#paint7_linear_44_398)" stroke-width="1.5"/>
<path fill-rule="evenodd" clip-rule="evenodd" d="M33.5411 73.9735L26.4566 61.9462L13.6089 61.0323L33.5411 73.9735Z" stroke="url(#paint8_linear_44_398)" stroke-width="1.5"/>
<path fill-rule="evenodd" clip-rule="evenodd" d="M26.4565 37.0878L19.3477 48.4817L4.87793 41.2458L26.4565 37.0878Z" stroke="url(#paint9_linear_44_398)" stroke-width="1.5"/>
<path fill-rule="evenodd" clip-rule="evenodd" d="M26.4566 61.9461L19.3479 48.4817L13.6089 61.0323L26.4566 61.9461Z" stroke="url(#paint10_linear_44_398)" stroke-width="1.5"/>
<path fill-rule="evenodd" clip-rule="evenodd" d="M65.1157 68.4756L66.6575 51.3652L77.0534 46.1663L65.1157 68.4756Z" stroke="url(#paint11_linear_44_398)" stroke-width="1.5"/>
<path fill-rule="evenodd" clip-rule="evenodd" d="M26.5444 61.9013L41.6197 41.5075L47.8745 64.226L26.5444 61.9013Z" stroke="url(#paint12_linear_44_398)" stroke-width="1.5"/>
<path fill-rule="evenodd" clip-rule="evenodd" d="M63.6561 37.6783L51.8548 46.753L41.6196 41.5074L63.6561 37.6783Z" stroke="url(#paint13_linear_44_398)" stroke-width="1.5"/>
<path fill-rule="evenodd" clip-rule="evenodd" d="M47.8744 63.9046L51.8549 46.7531L41.8047 41.6663L47.8744 63.9046Z" stroke="url(#paint14_linear_44_398)" stroke-width="1.5"/>
<path fill-rule="evenodd" clip-rule="evenodd" d="M26.5444 61.8358L39.6575 55.9623L41.4366 41.4159L26.5444 61.8358Z" stroke="url(#paint15_linear_44_398)" stroke-width="1.5"/>
<path fill-rule="evenodd" clip-rule="evenodd" d="M47.8744 64.4185L39.6575 55.9624L26.4565 61.7929L47.8744 64.4185Z" stroke="url(#paint16_linear_44_398)" stroke-width="1.5"/>
<path fill-rule="evenodd" clip-rule="evenodd" d="M42.8809 28.4243L63.54 37.6223L54.0168 23.287L42.8809 28.4243Z" stroke="url(#paint17_linear_44_398)" stroke-width="1.5"/>
<path fill-rule="evenodd" clip-rule="evenodd" d="M41.7319 41.315L42.7897 28.3776L63.4264 37.6784L41.7319 41.315Z" stroke="url(#paint18_linear_44_398)" stroke-width="1.5"/>
<path fill-rule="evenodd" clip-rule="evenodd" d="M69.5578 23.3768L63.6338 37.6672L77.0534 46.1663L69.5578 23.3768Z" stroke="url(#paint19_linear_44_398)" stroke-width="1.5"/>
<path fill-rule="evenodd" clip-rule="evenodd" d="M66.6574 51.3652L77.0534 46.1663L63.6338 37.6672L66.6574 51.3652Z" stroke="url(#paint20_linear_44_398)" stroke-width="1.5"/>
<path fill-rule="evenodd" clip-rule="evenodd" d="M54.105 23.3525L69.5578 22.9937L63.6338 37.6672L54.105 23.3525Z" stroke="url(#paint21_linear_44_398)" stroke-width="1.5"/>
<path fill-rule="evenodd" clip-rule="evenodd" d="M29.5044 21.7808L42.6978 28.3776L54.1048 23.2422L41.7317 16.9464L29.5044 21.7808Z" stroke="url(#paint22_linear_44_398)" stroke-width="1.5"/>
<path fill-rule="evenodd" clip-rule="evenodd" d="M66.6574 51.3652L47.8745 64.226L63.6768 37.6896L66.6574 51.3652Z" stroke="url(#paint23_linear_44_398)" stroke-width="1.5"/>
<path fill-rule="evenodd" clip-rule="evenodd" d="M34.2251 74.3155L47.8745 64.2261L65.0709 68.4981L34.2251 74.3155Z" stroke="url(#paint24_linear_44_398)" stroke-width="1.5"/>
<path fill-rule="evenodd" clip-rule="evenodd" d="M26.4341 37.0766L42.881 28.4691L41.8046 41.4159L26.4341 37.0766Z" stroke="url(#paint25_linear_44_398)" stroke-width="1.5"/>
<path fill-rule="evenodd" clip-rule="evenodd" d="M47.8745 64.226L66.521 51.4343L65.1643 68.4083L47.8745 64.226Z" stroke="url(#paint26_linear_44_398)" stroke-width="1.5"/>
<path fill-rule="evenodd" clip-rule="evenodd" d="M47.8744 64.2261L26.4565 61.9462L34.225 74.4071L47.8744 64.2261Z" stroke="url(#paint27_linear_44_398)" stroke-width="1.5"/>
<path fill-rule="evenodd" clip-rule="evenodd" d="M41.7322 41.4533L19.3481 48.4817L26.5447 37.1327L41.7322 41.4533Z" stroke="url(#paint28_linear_44_398)" stroke-width="1.5"/>
<circle cx="42.7954" cy="28.4016" r="2.4961" fill="white"/>
<circle cx="19.3276" cy="48.6594" r="2.4961" fill="white"/>
<circle cx="51.6929" cy="46.7679" r="1.52738" fill="white"/>
<circle cx="29.4898" cy="21.7508" r="1.52738" fill="white"/>
<circle cx="66.5161" cy="51.7799" r="1.52738" fill="white"/>
<circle cx="26.3072" cy="61.7684" r="1.52738" fill="white"/>
<circle cx="51.6929" cy="9.53098" r="1.52738" fill="white"/>
<circle cx="13.8677" cy="20.878" r="1.52738" fill="white"/>
<circle cx="69.4429" cy="23.0327" r="1.52738" fill="white"/>
<defs>
<linearGradient id="paint0_linear_44_398" x1="77.0537" y1="34.1801" x2="4.86988" y2="40.5151" gradientUnits="userSpaceOnUse">
<stop stop-color="#B4F1FF"/>
<stop offset="0.604167" stop-color="#EDA3FF"/>
<stop offset="1" stop-color="#FDCAE4"/>
</linearGradient>
<linearGradient id="paint1_linear_44_398" x1="33.5412" y1="12.9083" x2="13.5686" y2="15.1138" gradientUnits="userSpaceOnUse">
<stop stop-color="#B4F1FF"/>
<stop offset="0.604167" stop-color="#EDA3FF"/>
<stop offset="1" stop-color="#FDCAE4"/>
</linearGradient>
<linearGradient id="paint2_linear_44_398" x1="26.4565" y1="28.9011" x2="4.86652" y2="30.7443" gradientUnits="userSpaceOnUse">
<stop stop-color="#B4F1FF"/>
<stop offset="0.604167" stop-color="#EDA3FF"/>
<stop offset="1" stop-color="#FDCAE4"/>
</linearGradient>
<linearGradient id="paint3_linear_44_398" x1="29.5047" y1="27.2185" x2="13.4575" y2="28.4909" gradientUnits="userSpaceOnUse">
<stop stop-color="#B4F1FF"/>
<stop offset="0.604167" stop-color="#EDA3FF"/>
<stop offset="1" stop-color="#FDCAE4"/>
</linearGradient>
<linearGradient id="paint4_linear_44_398" x1="69.5578" y1="14.8067" x2="51.8992" y2="16.6028" gradientUnits="userSpaceOnUse">
<stop stop-color="#B4F1FF"/>
<stop offset="0.604167" stop-color="#EDA3FF"/>
<stop offset="1" stop-color="#FDCAE4"/>
</linearGradient>
<linearGradient id="paint5_linear_44_398" x1="51.8549" y1="11.0412" x2="33.7831" y2="13.6801" gradientUnits="userSpaceOnUse">
<stop stop-color="#B4F1FF"/>
<stop offset="0.604167" stop-color="#EDA3FF"/>
<stop offset="1" stop-color="#FDCAE4"/>
</linearGradient>
<linearGradient id="paint6_linear_44_398" x1="41.7317" y1="12.9083" x2="29.4643" y2="13.7341" gradientUnits="userSpaceOnUse">
<stop stop-color="#B4F1FF"/>
<stop offset="0.604167" stop-color="#EDA3FF"/>
<stop offset="1" stop-color="#FDCAE4"/>
</linearGradient>
<linearGradient id="paint7_linear_44_398" x1="54.0172" y1="14.8067" x2="41.6972" y2="15.6763" gradientUnits="userSpaceOnUse">
<stop stop-color="#B4F1FF"/>
<stop offset="0.604167" stop-color="#EDA3FF"/>
<stop offset="1" stop-color="#FDCAE4"/>
</linearGradient>
<linearGradient id="paint8_linear_44_398" x1="33.5411" y1="66.2692" x2="13.7687" y2="68.7676" gradientUnits="userSpaceOnUse">
<stop stop-color="#B4F1FF"/>
<stop offset="0.604167" stop-color="#EDA3FF"/>
<stop offset="1" stop-color="#FDCAE4"/>
</linearGradient>
<linearGradient id="paint9_linear_44_398" x1="26.4565" y1="41.6985" x2="5.22179" y2="44.9978" gradientUnits="userSpaceOnUse">
<stop stop-color="#B4F1FF"/>
<stop offset="0.604167" stop-color="#EDA3FF"/>
<stop offset="1" stop-color="#FDCAE4"/>
</linearGradient>
<linearGradient id="paint10_linear_44_398" x1="26.4566" y1="53.9302" x2="13.5873" y2="54.9377" gradientUnits="userSpaceOnUse">
<stop stop-color="#B4F1FF"/>
<stop offset="0.604167" stop-color="#EDA3FF"/>
<stop offset="1" stop-color="#FDCAE4"/>
</linearGradient>
<linearGradient id="paint11_linear_44_398" x1="77.0534" y1="55.1941" x2="65.0455" y2="55.7212" gradientUnits="userSpaceOnUse">
<stop stop-color="#B4F1FF"/>
<stop offset="0.604167" stop-color="#EDA3FF"/>
<stop offset="1" stop-color="#FDCAE4"/>
</linearGradient>
<linearGradient id="paint12_linear_44_398" x1="47.8745" y1="50.7009" x2="26.5044" y2="52.3469" gradientUnits="userSpaceOnUse">
<stop stop-color="#B4F1FF"/>
<stop offset="0.604167" stop-color="#EDA3FF"/>
<stop offset="1" stop-color="#FDCAE4"/>
</linearGradient>
<linearGradient id="paint13_linear_44_398" x1="63.6561" y1="41.3505" x2="42.2951" y2="45.6061" gradientUnits="userSpaceOnUse">
<stop stop-color="#B4F1FF"/>
<stop offset="0.604167" stop-color="#EDA3FF"/>
<stop offset="1" stop-color="#FDCAE4"/>
</linearGradient>
<linearGradient id="paint14_linear_44_398" x1="51.8549" y1="50.6653" x2="41.74" y2="51.0404" gradientUnits="userSpaceOnUse">
<stop stop-color="#B4F1FF"/>
<stop offset="0.604167" stop-color="#EDA3FF"/>
<stop offset="1" stop-color="#FDCAE4"/>
</linearGradient>
<linearGradient id="paint15_linear_44_398" x1="41.4366" y1="49.6791" x2="26.4815" y2="50.5739" gradientUnits="userSpaceOnUse">
<stop stop-color="#B4F1FF"/>
<stop offset="0.604167" stop-color="#EDA3FF"/>
<stop offset="1" stop-color="#FDCAE4"/>
</linearGradient>
<linearGradient id="paint16_linear_44_398" x1="47.8744" y1="59.3843" x2="27.1825" y2="63.6839" gradientUnits="userSpaceOnUse">
<stop stop-color="#B4F1FF"/>
<stop offset="0.604167" stop-color="#EDA3FF"/>
<stop offset="1" stop-color="#FDCAE4"/>
</linearGradient>
<linearGradient id="paint17_linear_44_398" x1="63.54" y1="29.088" x2="43.0063" y2="31.5157" gradientUnits="userSpaceOnUse">
<stop stop-color="#B4F1FF"/>
<stop offset="0.604167" stop-color="#EDA3FF"/>
<stop offset="1" stop-color="#FDCAE4"/>
</linearGradient>
<linearGradient id="paint18_linear_44_398" x1="63.4264" y1="33.6129" x2="41.9684" y2="36.5649" gradientUnits="userSpaceOnUse">
<stop stop-color="#B4F1FF"/>
<stop offset="0.604167" stop-color="#EDA3FF"/>
<stop offset="1" stop-color="#FDCAE4"/>
</linearGradient>
<linearGradient id="paint19_linear_44_398" x1="77.0534" y1="32.5989" x2="63.5603" y2="33.2507" gradientUnits="userSpaceOnUse">
<stop stop-color="#B4F1FF"/>
<stop offset="0.604167" stop-color="#EDA3FF"/>
<stop offset="1" stop-color="#FDCAE4"/>
</linearGradient>
<linearGradient id="paint20_linear_44_398" x1="77.0534" y1="43.2103" x2="63.6156" y2="44.2903" gradientUnits="userSpaceOnUse">
<stop stop-color="#B4F1FF"/>
<stop offset="0.604167" stop-color="#EDA3FF"/>
<stop offset="1" stop-color="#FDCAE4"/>
</linearGradient>
<linearGradient id="paint21_linear_44_398" x1="69.5578" y1="28.9315" x2="54.0995" y2="30.267" gradientUnits="userSpaceOnUse">
<stop stop-color="#B4F1FF"/>
<stop offset="0.604167" stop-color="#EDA3FF"/>
<stop offset="1" stop-color="#FDCAE4"/>
</linearGradient>
<linearGradient id="paint22_linear_44_398" x1="54.1048" y1="21.5721" x2="30.0614" y2="25.8171" gradientUnits="userSpaceOnUse">
<stop stop-color="#B4F1FF"/>
<stop offset="0.604167" stop-color="#EDA3FF"/>
<stop offset="1" stop-color="#FDCAE4"/>
</linearGradient>
<linearGradient id="paint23_linear_44_398" x1="66.6574" y1="48.4279" x2="47.7912" y2="49.5234" gradientUnits="userSpaceOnUse">
<stop stop-color="#B4F1FF"/>
<stop offset="0.604167" stop-color="#EDA3FF"/>
<stop offset="1" stop-color="#FDCAE4"/>
</linearGradient>
<linearGradient id="paint24_linear_44_398" x1="65.0709" y1="68.3089" x2="35.8237" y2="75.6446" gradientUnits="userSpaceOnUse">
<stop stop-color="#B4F1FF"/>
<stop offset="0.604167" stop-color="#EDA3FF"/>
<stop offset="1" stop-color="#FDCAE4"/>
</linearGradient>
<linearGradient id="paint25_linear_44_398" x1="42.881" y1="33.7082" x2="26.4836" y2="35.4171" gradientUnits="userSpaceOnUse">
<stop stop-color="#B4F1FF"/>
<stop offset="0.604167" stop-color="#EDA3FF"/>
<stop offset="1" stop-color="#FDCAE4"/>
</linearGradient>
<linearGradient id="paint26_linear_44_398" x1="66.521" y1="58.3031" x2="47.8801" y2="59.9831" gradientUnits="userSpaceOnUse">
<stop stop-color="#B4F1FF"/>
<stop offset="0.604167" stop-color="#EDA3FF"/>
<stop offset="1" stop-color="#FDCAE4"/>
</linearGradient>
<linearGradient id="paint27_linear_44_398" x1="47.8744" y1="66.9886" x2="26.7099" y2="69.9731" gradientUnits="userSpaceOnUse">
<stop stop-color="#B4F1FF"/>
<stop offset="0.604167" stop-color="#EDA3FF"/>
<stop offset="1" stop-color="#FDCAE4"/>
</linearGradient>
<linearGradient id="paint28_linear_44_398" x1="41.7322" y1="41.7252" x2="19.7487" y2="45.2824" gradientUnits="userSpaceOnUse">
<stop stop-color="#B4F1FF"/>
<stop offset="0.604167" stop-color="#EDA3FF"/>
<stop offset="1" stop-color="#FDCAE4"/>
</linearGradient>
</defs>
</svg>
