<svg width="85" height="82" viewBox="0 0 85 82" fill="none" xmlns="http://www.w3.org/2000/svg">
<g id="digital-attack-cyber-earth">
<path id="Path 47" fill-rule="evenodd" clip-rule="evenodd" d="M18.9699 41.4493C18.2031 43.4021 18.5196 43.792 20.0365 46.2871C21.5535 48.7821 22.713 53.1977 22.4912 57.6481C22.2695 62.0984 24.7603 57.3527 28.2431 51.4305C31.7259 45.5083 28.1498 44.0584 25.9686 41.8955C23.7874 39.7325 19.0128 40.355 17.0026 37.9961C14.9923 35.6373 16.1796 33.5742 20.0365 31.7183C23.8934 29.8625 29.8016 23.641 25.9686 23.5151C22.1357 23.3892 20.9435 22.6285 18.6397 20.5288C16.3359 18.429 3.60186 19.4718 7.10613 21.9085C10.6104 24.3453 11.4983 24.3399 10.6104 30.4879C9.72249 36.636 19.7367 39.4964 18.9699 41.4493Z" stroke="url(#paint0_linear_311_618)" stroke-linecap="round" stroke-linejoin="round"/>
<path id="Path 46" d="M48.5527 19.7169L48.6135 19.2206L48.5527 19.7169ZM47.9956 20.1524L47.4993 20.0915V20.0915L47.9956 20.1524ZM49.5693 20.0343L49.375 20.495L49.375 20.495L49.5693 20.0343ZM49.6871 20.0838L49.8792 19.6222L49.8792 19.6222L49.6871 20.0838ZM51.1876 20.5568L51.0841 21.046L51.1876 20.5568ZM59.4623 20.5522L59.5137 21.0495L59.4623 20.5522ZM73.1585 20.9095L73.2546 20.4188V20.4188L73.1585 20.9095ZM77.1996 22.1591L76.9774 22.607V22.607L77.1996 22.1591ZM78.4011 22.9537L78.0573 23.3168L78.0573 23.3168L78.4011 22.9537ZM78.986 23.9747L79.4818 23.9096V23.9096L78.986 23.9747ZM78.8472 25.0141L78.3734 24.8542V24.8542L78.8472 25.0141ZM78.3624 26.0731L78.8009 26.3132V26.3132L78.3624 26.0731ZM77.4954 27.5159L77.0715 27.2508V27.2508L77.4954 27.5159ZM76.9874 28.3383L77.4157 28.5963L77.4157 28.5963L76.9874 28.3383ZM75.9431 30.5098L76.4247 30.6441V30.6441L75.9431 30.5098ZM76.0917 32.0056L76.4869 31.6994V31.6994L76.0917 32.0056ZM76.5118 34.4536L76.0225 34.3503L76.5118 34.4536ZM75.337 37.0917L75.7568 37.3633L75.337 37.0917ZM71.2077 41.0884L71.4286 41.537L71.2077 41.0884ZM70.1022 41.2673L69.9821 41.7527L70.1022 41.2673ZM69.3285 40.6843L69.7464 40.4097L69.3285 40.6843ZM68.9697 39.8795L69.4451 39.7246V39.7246L68.9697 39.8795ZM68.8444 39.4686L68.3646 39.6095L68.3646 39.6096L68.8444 39.4686ZM68.8366 39.4422L69.3163 39.3013L68.8366 39.4422ZM68.7273 39.0795L69.2038 38.9281V38.9281L68.7273 39.0795ZM68.4809 38.4812L68.9083 38.2217L68.9083 38.2216L68.4809 38.4812ZM68.2811 38.2794L68.444 37.8067L68.444 37.8067L68.2811 38.2794ZM67.8911 38.3452L67.6966 37.8846L67.8911 38.3452ZM66.8774 39.0362L67.2031 39.4155V39.4155L66.8774 39.0362ZM64.3554 40.3129L64.3312 39.8135H64.3312L64.3554 40.3129ZM62.4136 39.4975L62.0826 39.8723L62.0826 39.8723L62.4136 39.4975ZM61.6133 38.7028L61.2501 39.0463L61.2501 39.0463L61.6133 38.7028ZM61.4893 38.5714L61.1256 38.9145L61.1256 38.9145L61.4893 38.5714ZM60.7617 37.8198L60.4111 38.1763H60.4111L60.7617 37.8198ZM58.5283 36.1596L58.7553 35.7141V35.7141L58.5283 36.1596ZM57.5519 35.8707L57.5345 35.371H57.5345L57.5519 35.8707ZM57.1027 36.0697L57.4629 36.4165L57.1027 36.0697ZM56.7402 36.7483L57.2143 36.9071L56.7402 36.7483ZM56.4861 37.8697L56.9798 37.9489L56.4861 37.8697ZM56.3395 38.9336L56.8355 38.9966V38.9966L56.3395 38.9336ZM56.3043 39.209L56.8002 39.273V39.273L56.3043 39.209ZM56.0907 40.5735L55.6009 40.4732L56.0907 40.5735ZM55.7095 41.8071L56.162 42.0197L55.7095 41.8071ZM54.9315 42.7506L55.1996 43.1727L55.1996 43.1727L54.9315 42.7506ZM54.1678 43.8829L53.6895 43.7374V43.7374L54.1678 43.8829ZM53.8235 45.8374L53.3277 45.7733V45.7733L53.8235 45.8374ZM53.8011 46.0103L54.297 46.0747L53.8011 46.0103ZM51.8197 52.4307L52.2524 52.6813L51.8197 52.4307ZM49.8948 54.7302L49.6226 54.3108H49.6226L49.8948 54.7302ZM48.8664 55.0966L48.8979 55.5956H48.8979L48.8664 55.0966ZM47.8645 54.8524L48.1152 54.4198H48.1152L47.8645 54.8524ZM46.4409 53.0425L45.9864 53.2509L46.4409 53.0425ZM45.5044 49.9824L45.994 49.8808L45.5044 49.9824ZM45.8924 49.3913L45.7908 48.9017H45.7908L45.8924 49.3913ZM46.4836 49.7793L46.9732 49.6777L46.4836 49.7793ZM47.3499 52.6257L47.8044 52.4173H47.8044L47.3499 52.6257ZM48.3658 53.9871L48.1152 54.4198L48.1152 54.4198L48.3658 53.9871ZM48.8033 54.0985L48.8348 54.5976L48.8348 54.5975L48.8033 54.0985ZM49.3504 53.8914L49.0781 53.472H49.0781L49.3504 53.8914ZM50.9544 51.9295L51.3871 52.1801L50.9544 51.9295ZM52.8095 45.8815L53.3053 45.9459L52.8095 45.8815ZM52.8352 45.6821L52.3393 45.6182L52.8352 45.6821ZM53.2111 43.5919L53.6895 43.7374L53.2111 43.5919ZM54.3952 41.9065L54.1271 41.4845H54.1271L54.3952 41.9065ZM54.8044 41.3819L55.2569 41.5945H55.2569L54.8044 41.3819ZM55.1111 40.373L54.6212 40.2727L55.1111 40.373ZM55.3125 39.0811L54.8166 39.0171L55.3125 39.0811ZM55.3465 38.8151L55.8425 38.8781L55.3465 38.8151ZM55.4987 37.7111L55.0051 37.6318L55.4987 37.7111ZM55.7919 36.4308L56.2661 36.5896L55.7919 36.4308ZM56.3822 35.3763L56.0219 35.0295V35.0295L56.3822 35.3763ZM57.517 34.8714L57.4995 34.3717L57.517 34.8714ZM58.9824 35.2686L58.7553 35.7141L58.9824 35.2686ZM61.463 37.1069L61.1124 37.4634L61.463 37.1069ZM62.2191 37.8877L62.5829 37.5447L62.5829 37.5447L62.2191 37.8877ZM62.3399 38.0157L62.7032 37.6721L62.7032 37.6721L62.3399 38.0157ZM63.0756 38.748L63.4066 38.3733L63.0756 38.748ZM64.3071 39.3141L64.283 38.8147H64.283L64.3071 39.3141ZM66.2259 38.2776L66.5516 38.6569L66.2259 38.2776ZM67.502 37.424L67.6966 37.8846H67.6966L67.502 37.424ZM68.6068 37.3339L68.7696 36.8612L68.6068 37.3339ZM69.3356 37.9621L69.763 37.7026H69.763L69.3356 37.9621ZM69.6804 38.7768L70.1569 38.6254L70.1569 38.6254L69.6804 38.7768ZM69.7953 39.1578L70.275 39.0169L70.275 39.0169L69.7953 39.1578ZM69.8038 39.1868L69.3241 39.3276L69.3241 39.3277L69.8038 39.1868ZM69.9205 39.5698L70.3959 39.4149L69.9205 39.5698ZM70.1642 40.1351L70.5821 39.8605L70.5821 39.8605L70.1642 40.1351ZM70.3422 40.2965L70.2222 40.7819L70.2222 40.7819L70.3422 40.2965ZM70.766 40.1913L70.5451 39.7427L70.766 40.1913ZM74.4972 36.5487L74.9171 36.8202L74.4972 36.5487ZM75.5333 34.2471L75.0441 34.1438V34.1438L75.5333 34.2471ZM75.3012 32.6181L75.6964 32.3119V32.3119L75.3012 32.6181ZM74.9798 30.2412L75.4614 30.3755V30.3755L74.9798 30.2412ZM76.1307 27.8224L76.559 28.0803L76.559 28.0803L76.1307 27.8224ZM76.6725 26.9453L77.0964 27.2105V27.2105L76.6725 26.9453ZM77.4852 25.5928L77.0467 25.3527L77.0467 25.3527L77.4852 25.5928ZM77.8997 24.6943L77.4259 24.5344V24.5344L77.8997 24.6943ZM77.9945 24.1049L78.4903 24.0398V24.0398L77.9945 24.1049ZM77.7136 23.6798L77.3698 24.0429V24.0429L77.7136 23.6798ZM76.7551 23.0548L76.5329 23.5027V23.5027L76.7551 23.0548ZM72.9662 21.8908L72.87 22.3815L72.9662 21.8908ZM59.565 21.5469L59.5137 21.0495L59.565 21.5469ZM50.9807 21.5352L51.0841 21.046L50.9807 21.5352ZM49.3027 21.007L49.4949 20.5454L49.4949 20.5454L49.3027 21.007ZM49.1956 20.9622L49.0027 21.4235L49.1956 20.9622ZM48.431 20.7095L48.3702 21.2058L48.431 20.7095ZM43.1755 24.9193L43.5536 25.2464L43.1755 24.9193ZM43.1246 24.214L43.4517 23.8359H43.4517L43.1246 24.214ZM42.3965 25.7367L42.7302 26.109V26.109L42.3965 25.7367ZM41.5797 26.2387L41.4466 25.7567L41.5797 26.2387ZM41.2854 26.4235L40.9733 26.0328L41.2854 26.4235ZM40.7769 26.9157L41.1493 27.2494V27.2494L40.7769 26.9157ZM39.7689 28.3704L39.3245 28.1412L39.7689 28.3704ZM39.0953 28.5856L39.3245 28.1412H39.3245L39.0953 28.5856ZM38.8801 27.912L38.4357 27.6828V27.6828L38.8801 27.912ZM40.0322 26.2483L40.4046 26.582V26.582L40.0322 26.2483ZM40.6613 25.6421L40.3492 25.2515L40.3492 25.2515L40.6613 25.6421ZM41.3135 25.2748L41.1804 24.7928L41.3135 25.2748ZM41.7291 24.992L41.3954 24.6196V24.6196L41.7291 24.992ZM42.4193 24.2649L42.7974 24.5921H42.7974L42.4193 24.2649ZM39.9118 33.4617L40.2653 33.8152L39.9118 33.4617ZM39.9118 32.7546L39.5583 33.1081H39.5583L39.9118 32.7546ZM37.4773 36.9923L37.9647 37.1042L37.4773 36.9923ZM37.7375 38.9939L37.2926 39.2221L37.7375 38.9939ZM40.0634 41.3314L40.3412 40.9156H40.3412L40.0634 41.3314ZM40.2014 42.0249L39.7856 41.7471H39.7856L40.2014 42.0249ZM39.5079 42.1628L39.7856 41.7471H39.7856L39.5079 42.1628ZM36.8478 39.4504L37.2926 39.2221H37.2926L36.8478 39.4504ZM36.5027 36.7687L36.99 36.8805L36.5027 36.7687ZM39.2047 32.7545L39.5583 33.1081L39.2047 32.7545ZM48.6135 19.2206C48.0653 19.1534 47.5665 19.5434 47.4993 20.0915L48.4919 20.2132V20.2132L48.6135 19.2206ZM49.7636 19.5736C49.4547 19.4433 49.0654 19.276 48.6135 19.2206L48.4919 20.2132C48.7845 20.249 49.0498 20.3578 49.375 20.495L49.7636 19.5736ZM49.8792 19.6222C49.8414 19.6064 49.8032 19.5903 49.7636 19.5736L49.375 20.495C49.4142 20.5116 49.4545 20.5286 49.4949 20.5454L49.8792 19.6222ZM51.291 20.0677C50.6502 19.9321 50.2322 19.7691 49.8792 19.6222L49.4949 20.5454C49.8784 20.705 50.3596 20.8928 51.0841 21.046L51.291 20.0677ZM59.4109 20.0548C54.9001 20.521 52.5952 20.3435 51.291 20.0677L51.0841 21.046C52.533 21.3524 54.9548 21.5206 59.5137 21.0495L59.4109 20.0548ZM73.2546 20.4188C69.8151 19.7447 65.0328 19.4739 59.4109 20.0548L59.5137 21.0495C65.0527 20.4771 69.7342 20.7479 73.0623 21.4001L73.2546 20.4188ZM77.4219 21.7112C76.3886 21.1984 74.9688 20.7548 73.2546 20.4188L73.0623 21.4001C74.7264 21.7263 76.052 22.1478 76.9774 22.607L77.4219 21.7112ZM78.7449 22.5907C78.3935 22.2579 77.9372 21.9669 77.4219 21.7112L76.9774 22.607C77.44 22.8365 77.8026 23.0755 78.0573 23.3168L78.7449 22.5907ZM79.4818 23.9096C79.4091 23.3563 79.0886 22.9161 78.7449 22.5906L78.0573 23.3168C78.3124 23.5582 78.459 23.8017 78.4903 24.0398L79.4818 23.9096ZM79.3209 25.1739C79.4466 24.8015 79.5411 24.3613 79.4818 23.9096L78.4903 24.0398C78.5216 24.2783 78.4752 24.5526 78.3734 24.8542L79.3209 25.1739ZM78.8009 26.3132C79.0043 25.9418 79.1924 25.5548 79.3209 25.1739L78.3734 24.8542C78.2716 25.1559 78.1143 25.485 77.9238 25.8329L78.8009 26.3132ZM77.9194 27.7809C78.2268 27.2892 78.5452 26.7803 78.8009 26.3132L77.9238 25.8329C77.6847 26.2697 77.3829 26.7527 77.0715 27.2508L77.9194 27.7809ZM77.4157 28.5963C77.5749 28.3319 77.7457 28.0587 77.9194 27.7809L77.0715 27.2508C76.8987 27.5272 76.7233 27.8076 76.559 28.0803L77.4157 28.5963ZM76.4247 30.6441C76.5883 30.0575 76.9498 29.3698 77.4157 28.5963L76.559 28.0803C76.0895 28.8599 75.6644 29.6476 75.4614 30.3755L76.4247 30.6441ZM76.4869 31.6994C76.3405 31.5105 76.2648 31.2174 76.4247 30.6441L75.4614 30.3755C75.258 31.105 75.2783 31.7723 75.6964 32.3119L76.4869 31.6994ZM77.001 34.5568C77.2002 33.6127 77.1528 32.5587 76.4869 31.6994L75.6964 32.3119C76.115 32.852 76.1883 33.5647 76.0225 34.3503L77.001 34.5568ZM75.7568 37.3633C76.3306 36.476 76.8012 35.5035 77.001 34.5568L76.0225 34.3503C75.8569 35.1353 75.4526 35.9921 74.9171 36.8202L75.7568 37.3633ZM71.4286 41.537C72.903 40.811 74.6224 39.1175 75.7568 37.3633L74.9171 36.8202C73.846 38.4765 72.2498 40.018 70.9868 40.6398L71.4286 41.537ZM69.9821 41.7527C70.495 41.8795 70.9942 41.7508 71.4286 41.537L70.9868 40.6398C70.6707 40.7955 70.4222 40.8314 70.2222 40.7819L69.9821 41.7527ZM68.9107 40.9589C69.1176 41.2738 69.4553 41.6224 69.9821 41.7527L70.2222 40.7819C70.0223 40.7325 69.87 40.5978 69.7464 40.4097L68.9107 40.9589ZM68.4942 40.0343C68.5846 40.3117 68.7116 40.6559 68.9107 40.9589L69.7464 40.4097C69.6231 40.2222 69.5291 39.9825 69.4451 39.7246L68.4942 40.0343ZM68.3646 39.6096C68.4038 39.7428 68.4471 39.8896 68.4942 40.0343L69.4451 39.7246C69.403 39.5955 69.3635 39.4618 69.3241 39.3277L68.3646 39.6096ZM68.3569 39.5831L68.3646 39.6095L69.3241 39.3278L69.3163 39.3013L68.3569 39.5831ZM68.2507 39.2308C68.2858 39.3411 68.3195 39.4558 68.3569 39.5831L69.3163 39.3013C69.2796 39.1761 69.2428 39.0507 69.2038 38.9281L68.2507 39.2308ZM68.0535 38.7407C68.1091 38.8323 68.1725 38.9844 68.2507 39.2308L69.2038 38.9281C69.1208 38.6668 69.0286 38.4199 68.9083 38.2217L68.0535 38.7407ZM68.1183 38.7521C68.0963 38.7446 68.0767 38.7352 68.06 38.7251C68.0437 38.7152 68.033 38.7063 68.0276 38.7013C68.0178 38.6923 68.0281 38.6988 68.0535 38.7407L68.9083 38.2216C68.787 38.0219 68.6383 37.8736 68.444 37.8067L68.1183 38.7521ZM68.0856 38.8058C68.1692 38.7705 68.2054 38.7671 68.2049 38.7672C68.2041 38.7672 68.1943 38.768 68.1775 38.766C68.1598 38.764 68.1396 38.7595 68.1183 38.7522L68.444 37.8067C68.2496 37.7397 68.0073 37.7534 67.6966 37.8846L68.0856 38.8058ZM67.2031 39.4155C67.626 39.0524 67.9113 38.8794 68.0856 38.8058L67.6966 37.8846C67.3875 38.0151 67.0122 38.2614 66.5516 38.6569L67.2031 39.4155ZM64.3795 40.8124C65.312 40.7673 66.2265 40.2542 67.2031 39.4155L66.5516 38.6569C65.6304 39.448 64.928 39.7847 64.3312 39.8135L64.3795 40.8124ZM62.0826 39.8723C62.6566 40.3792 63.3975 40.8598 64.3795 40.8124L64.3312 39.8135C63.7347 39.8423 63.2436 39.5635 62.7446 39.1228L62.0826 39.8723ZM61.2501 39.0463C61.5164 39.3279 61.7956 39.6188 62.0826 39.8723L62.7446 39.1228C62.4952 38.9025 62.2439 38.6418 61.9766 38.3592L61.2501 39.0463ZM61.1256 38.9145C61.1671 38.9585 61.2086 39.0025 61.2501 39.0463L61.9766 38.3592C61.9357 38.3159 61.8946 38.2724 61.8531 38.2283L61.1256 38.9145ZM60.4111 38.1763C60.6623 38.4234 60.8934 38.6683 61.1256 38.9145L61.8531 38.2283C61.6224 37.9838 61.379 37.7257 61.1124 37.4634L60.4111 38.1763ZM58.3013 36.6051C59.1597 37.0425 59.8251 37.5998 60.4111 38.1763L61.1124 37.4634C60.4852 36.8464 59.7373 36.2145 58.7553 35.7141L58.3013 36.6051ZM57.5694 36.3704C57.6658 36.3671 57.8928 36.3969 58.3013 36.6051L58.7553 35.7141C58.2643 35.4638 57.8637 35.3595 57.5345 35.371L57.5694 36.3704ZM57.4629 36.4165C57.4873 36.3911 57.5012 36.3839 57.507 36.3812C57.5126 36.3786 57.5292 36.3718 57.5694 36.3704L57.5345 35.371C57.2055 35.3825 56.9477 35.5097 56.7424 35.723L57.4629 36.4165ZM57.2143 36.9071C57.31 36.6213 57.4027 36.479 57.4629 36.4165L56.7424 35.723C56.5373 35.9361 56.3848 36.2351 56.2661 36.5896L57.2143 36.9071ZM56.9798 37.9489C57.0464 37.5337 57.1211 37.1855 57.2143 36.9071L56.2661 36.5896C56.1474 36.9442 56.0624 37.3545 55.9924 37.7904L56.9798 37.9489ZM56.8355 38.9966C56.8823 38.6283 56.9265 38.2805 56.9798 37.9489L55.9924 37.7904C55.9361 38.141 55.8898 38.5055 55.8435 38.8705L56.8355 38.9966ZM56.8002 39.273C56.8122 39.18 56.8239 39.0877 56.8355 38.9966L55.8435 38.8705C55.8319 38.9618 55.8202 39.0532 55.8084 39.1451L56.8002 39.273ZM56.5806 40.6738C56.6742 40.2163 56.741 39.7317 56.8002 39.273L55.8084 39.1451C55.7494 39.6022 55.6865 40.055 55.6009 40.4732L56.5806 40.6738ZM56.162 42.0197C56.36 41.5983 56.4877 41.1276 56.5806 40.6738L55.6009 40.4732C55.5153 40.8915 55.4069 41.2753 55.2569 41.5945L56.162 42.0197ZM55.1996 43.1727C55.6663 42.8762 55.964 42.4411 56.162 42.0197L55.2569 41.5945C55.1069 41.9139 54.9153 42.1685 54.6634 42.3286L55.1996 43.1727ZM54.6462 44.0284C54.79 43.5553 54.9651 43.3216 55.1996 43.1727L54.6634 42.3286C54.1596 42.6486 53.8754 43.126 53.6895 43.7374L54.6462 44.0284ZM54.3194 45.9015C54.4237 45.095 54.5018 44.5033 54.6462 44.0284L53.6895 43.7374C53.5154 44.3097 53.4283 44.9952 53.3277 45.7733L54.3194 45.9015ZM54.297 46.0747C54.3046 46.0161 54.312 45.9583 54.3194 45.9015L53.3277 45.7733C53.3203 45.8301 53.3129 45.8876 53.3053 45.9459L54.297 46.0747ZM52.2524 52.6813C53.738 50.1165 54.0718 47.808 54.297 46.0747L53.3053 45.9459C53.0836 47.6523 52.7686 49.7951 51.3871 52.1801L52.2524 52.6813ZM50.1671 55.1496C50.9105 54.667 51.5964 53.8138 52.2524 52.6813L51.3871 52.1801C50.7595 53.2636 50.1697 53.9557 49.6226 54.3108L50.1671 55.1496ZM48.8979 55.5956C49.357 55.5665 49.7832 55.3988 50.1671 55.1496L49.6226 54.3108C49.349 54.4884 49.0862 54.5817 48.8348 54.5975L48.8979 55.5956ZM47.6139 55.2851C47.9963 55.5066 48.4311 55.6251 48.8979 55.5956L48.8348 54.5975C48.5835 54.6134 48.3434 54.552 48.1152 54.4198L47.6139 55.2851ZM45.9864 53.2509C46.3712 54.09 46.8889 54.8651 47.6139 55.2851L48.1152 54.4198C47.6589 54.1555 47.2506 53.6087 46.8954 52.8341L45.9864 53.2509ZM45.0149 50.084C45.2676 51.3021 45.5888 52.3838 45.9864 53.2509L46.8954 52.8341C46.5402 52.0594 46.238 51.0568 45.994 49.8808L45.0149 50.084ZM45.7908 48.9017C45.2501 49.0139 44.9027 49.5432 45.0149 50.084L45.994 49.8808H45.994L45.7908 48.9017ZM46.9732 49.6777C46.861 49.1369 46.3316 48.7895 45.7908 48.9017L45.994 49.8808L45.994 49.8808L46.9732 49.6777ZM47.8044 52.4173C47.4916 51.7351 47.2085 50.8116 46.9732 49.6777L45.994 49.8808C46.238 51.0568 46.5402 52.0594 46.8954 52.8341L47.8044 52.4173ZM48.6164 53.5545C48.429 53.4459 48.1301 53.1276 47.8044 52.4173L46.8954 52.8341C47.2506 53.6087 47.6589 54.1555 48.1152 54.4198L48.6164 53.5545ZM48.7718 53.5995C48.7354 53.6018 48.69 53.5971 48.6164 53.5545L48.1152 54.4198C48.3435 54.552 48.5836 54.6134 48.8348 54.5976L48.7718 53.5995ZM49.0781 53.472C48.9152 53.5778 48.8158 53.5968 48.7718 53.5995L48.8348 54.5975C49.0861 54.5817 49.3489 54.4884 49.6226 54.3108L49.0781 53.472ZM50.5218 51.6789C49.9225 52.7136 49.4286 53.2445 49.0781 53.472L49.6226 54.3108C50.1697 53.9557 50.7595 53.2635 51.3871 52.1801L50.5218 51.6789ZM52.3136 45.8171C52.0954 47.497 51.799 49.4737 50.5218 51.6789L51.3871 52.1801C52.7686 49.7951 53.0836 47.6523 53.3053 45.9459L52.3136 45.8171ZM52.3393 45.6182C52.3308 45.6844 52.3223 45.7506 52.3136 45.8171L53.3053 45.9459C53.314 45.8789 53.3226 45.8121 53.3311 45.746L52.3393 45.6182ZM52.7327 43.4465C52.5332 44.1025 52.4358 44.8693 52.3393 45.6182L53.3311 45.746C53.4306 44.9737 53.5192 44.2971 53.6895 43.7374L52.7327 43.4465ZM54.1271 41.4845C53.3531 41.9762 52.9602 42.6983 52.7327 43.4465L53.6895 43.7374C53.8753 43.1262 54.1595 42.6487 54.6634 42.3286L54.1271 41.4845ZM54.3518 41.1693C54.25 41.3861 54.1647 41.4607 54.1271 41.4845L54.6634 42.3286C54.9152 42.1686 55.1068 41.914 55.2569 41.5945L54.3518 41.1693ZM54.6212 40.2727C54.5428 40.6556 54.4537 40.9524 54.3518 41.1693L55.2569 41.5945C55.4069 41.2753 55.5153 40.8915 55.6009 40.4732L54.6212 40.2727ZM54.8166 39.0171C54.7578 39.4728 54.6988 39.8937 54.6212 40.2727L55.6009 40.4732C55.6865 40.055 55.7494 39.6022 55.8084 39.1451L54.8166 39.0171ZM54.8504 38.7521C54.8391 38.8415 54.8279 38.9298 54.8166 39.0171L55.8084 39.1451C55.8198 39.0566 55.8311 38.9674 55.8425 38.8781L54.8504 38.7521ZM55.0051 37.6318C54.9459 38.0003 54.897 38.3855 54.8504 38.7521L55.8425 38.8781C55.8894 38.5084 55.9363 38.1398 55.9924 37.7904L55.0051 37.6318ZM55.3178 36.2721C55.1736 36.7028 55.0784 37.1751 55.0051 37.6318L55.9924 37.7904C56.0624 37.3545 56.1474 36.9442 56.2661 36.5896L55.3178 36.2721ZM56.0219 35.0295C55.6719 35.3932 55.4596 35.8486 55.3178 36.2721L56.2661 36.5896C56.3848 36.235 56.5373 35.9361 56.7424 35.723L56.0219 35.0295ZM57.4995 34.3717C56.8985 34.3927 56.3984 34.6383 56.0219 35.0295L56.7424 35.723C56.9476 35.5098 57.2054 35.3825 57.5345 35.371L57.4995 34.3717ZM59.2094 34.8231C58.636 34.5309 58.0616 34.352 57.4995 34.3717L57.5345 35.371C57.8637 35.3595 58.2643 35.4639 58.7553 35.7141L59.2094 34.8231ZM61.8137 36.7505C61.1453 36.093 60.3149 35.3865 59.2094 34.8231L58.7553 35.7141C59.7373 36.2145 60.4852 36.8464 61.1124 37.4634L61.8137 36.7505ZM62.5829 37.5447C62.3525 37.3004 62.0947 37.027 61.8137 36.7505L61.1124 37.4634C61.3781 37.7248 61.6235 37.9849 61.8554 38.2308L62.5829 37.5447ZM62.7032 37.6721C62.6638 37.6305 62.6238 37.5881 62.5829 37.5447L61.8554 38.2308C61.8962 38.2741 61.9367 38.317 61.9766 38.3592L62.7032 37.6721ZM63.4066 38.3733C63.1949 38.1863 62.9716 37.956 62.7032 37.6721L61.9766 38.3592C62.2439 38.6418 62.4952 38.9025 62.7446 39.1228L63.4066 38.3733ZM64.283 38.8147C64.0709 38.8249 63.8294 38.7467 63.4066 38.3733L62.7446 39.1228C63.2438 39.5637 63.7348 39.8423 64.3312 39.8135L64.283 38.8147ZM65.9001 37.8982C65.0343 38.6418 64.5441 38.8021 64.283 38.8147L64.3312 39.8135C64.928 39.7847 65.6304 39.448 66.5516 38.6569L65.9001 37.8982ZM67.3075 36.9634C66.8638 37.1508 66.3986 37.4702 65.9001 37.8982L66.5516 38.6569C67.0122 38.2614 67.3875 38.0151 67.6966 37.8846L67.3075 36.9634ZM68.7696 36.8612C68.2666 36.6879 67.7589 36.7727 67.3075 36.9634L67.6966 37.8846C68.0062 37.7538 68.2488 37.7394 68.444 37.8067L68.7696 36.8612ZM69.763 37.7026C69.5749 37.3928 69.2667 37.0324 68.7696 36.8612L68.444 37.8067C68.6392 37.8739 68.7877 38.0231 68.9083 38.2217L69.763 37.7026ZM70.1569 38.6254C70.0688 38.3479 69.9478 38.007 69.763 37.7026L68.9083 38.2217C69.0286 38.4199 69.1208 38.6667 69.2038 38.9281L70.1569 38.6254ZM70.275 39.0169C70.239 38.894 70.1992 38.7587 70.1569 38.6254L69.2038 38.9281C69.2423 39.0492 69.279 39.174 69.3156 39.2986L70.275 39.0169ZM70.2836 39.0459L70.275 39.0169L69.3156 39.2986L69.3241 39.3276L70.2836 39.0459ZM70.3959 39.4149C70.359 39.3015 70.3232 39.181 70.2835 39.0458L69.3241 39.3277C69.3635 39.4618 69.403 39.5955 69.4451 39.7246L70.3959 39.4149ZM70.5821 39.8605C70.5351 39.789 70.4739 39.6544 70.3959 39.4149L69.4451 39.7246C69.529 39.9823 69.6231 40.2221 69.7464 40.4097L70.5821 39.8605ZM70.4622 39.8112C70.4832 39.8164 70.5065 39.8243 70.53 39.8358C70.5529 39.847 70.5703 39.8589 70.5823 39.8684C70.6045 39.8863 70.6028 39.892 70.5821 39.8605L69.7464 40.4097C69.8714 40.5999 70.0242 40.733 70.2222 40.7819L70.4622 39.8112ZM70.5451 39.7427C70.4489 39.7901 70.3997 39.8008 70.3888 39.8028C70.3805 39.8042 70.4093 39.7981 70.4622 39.8112L70.2222 40.7819C70.4217 40.8313 70.6699 40.7959 70.9868 40.6398L70.5451 39.7427ZM74.0774 36.2772C73.0697 37.8355 71.5966 39.225 70.5451 39.7427L70.9868 40.6398C72.2498 40.018 73.846 38.4765 74.9171 36.8202L74.0774 36.2772ZM75.0441 34.1438C74.9126 34.767 74.5747 35.5082 74.0774 36.2772L74.9171 36.8202C75.4526 35.9921 75.8569 35.1353 76.0225 34.3503L75.0441 34.1438ZM74.906 32.9244C75.0785 33.147 75.1758 33.5197 75.0441 34.1438L76.0225 34.3503C76.1884 33.5644 76.1148 32.8518 75.6964 32.3119L74.906 32.9244ZM74.4982 30.1069C74.2528 30.9867 74.2136 32.0309 74.906 32.9244L75.6964 32.3119C75.278 31.7719 75.2582 31.1043 75.4614 30.3755L74.4982 30.1069ZM75.7024 27.5644C75.229 28.3505 74.7405 29.238 74.4982 30.1069L75.4614 30.3755C75.6644 29.6476 76.0895 28.8599 76.559 28.0803L75.7024 27.5644ZM76.2487 26.68C76.0722 26.962 75.8874 27.2573 75.7024 27.5644L76.559 28.0803C76.7389 27.7817 76.9192 27.4935 77.0964 27.2105L76.2487 26.68ZM77.0467 25.3527C76.8193 25.768 76.5472 26.2031 76.2487 26.68L77.0964 27.2105C77.3912 26.7394 77.6798 26.2786 77.9238 25.8329L77.0467 25.3527ZM77.4259 24.5344C77.3508 24.7569 77.2244 25.028 77.0467 25.3527L77.9238 25.8329C78.1143 25.485 78.2716 25.1559 78.3734 24.8542L77.4259 24.5344ZM77.4988 24.17C77.5021 24.195 77.5039 24.3034 77.4259 24.5344L78.3734 24.8542C78.4752 24.5526 78.5216 24.2783 78.4903 24.0398L77.4988 24.17ZM77.3698 24.0429C77.4489 24.1178 77.4852 24.1689 77.4998 24.1933C77.5148 24.2184 77.5041 24.2103 77.4988 24.17L78.4903 24.0398C78.4591 23.802 78.3127 23.5586 78.0573 23.3168L77.3698 24.0429ZM76.5329 23.5027C76.9429 23.7062 77.2117 23.8932 77.3698 24.0429L78.0573 23.3168C77.8026 23.0755 77.44 22.8365 76.9774 22.607L76.5329 23.5027ZM72.87 22.3815C74.4839 22.6978 75.7155 23.0971 76.5329 23.5027L76.9774 22.607C76.052 22.1478 74.7264 21.7263 73.0623 21.4001L72.87 22.3815ZM59.6164 22.0442C65.0726 21.4804 69.6533 21.7511 72.87 22.3815L73.0623 21.4001C69.7342 20.7479 65.0527 20.4771 59.5137 21.0495L59.6164 22.0442ZM50.8772 22.0244C52.4709 22.3614 55.0095 22.5203 59.6164 22.0442L59.5137 21.0495C54.9548 21.5206 52.533 21.3524 51.0841 21.046L50.8772 22.0244ZM49.1105 21.4685C49.5247 21.641 50.0691 21.8535 50.8772 22.0244L51.0841 21.046C50.3596 20.8928 49.8784 20.705 49.4949 20.5454L49.1105 21.4685ZM49.0027 21.4235C49.0368 21.4378 49.0728 21.4529 49.1105 21.4685L49.4949 20.5454C49.458 20.53 49.4227 20.5152 49.3884 20.5009L49.0027 21.4235ZM48.3702 21.2058C48.5143 21.2234 48.6406 21.2721 49.0027 21.4235L49.3884 20.5009C49.0626 20.3647 48.8004 20.251 48.4919 20.2132L48.3702 21.2058ZM47.4993 20.0915C47.4321 20.6397 47.822 21.1386 48.3702 21.2058L48.4919 20.2132L47.4993 20.0915ZM43.5536 25.2464C43.915 24.8288 43.8694 24.1972 43.4517 23.8359L42.7974 24.5921L43.5536 25.2464ZM42.7302 26.109C43.0043 25.8634 43.2829 25.5593 43.5536 25.2464L42.7974 24.5921C42.5343 24.8962 42.2887 25.1619 42.0628 25.3643L42.7302 26.109ZM41.7129 26.7206C42.1276 26.6061 42.4759 26.337 42.7302 26.109L42.0628 25.3643C41.8374 25.5664 41.6311 25.7058 41.4466 25.7567L41.7129 26.7206ZM41.5974 26.8142C41.6625 26.7622 41.7081 26.7324 41.7338 26.7173C41.7466 26.7097 41.7528 26.7068 41.7525 26.707C41.7523 26.7071 41.7494 26.7084 41.7439 26.7105C41.7391 26.7124 41.7283 26.7164 41.7129 26.7206L41.4466 25.7567C41.3139 25.7934 41.1511 25.8908 40.9733 26.0328L41.5974 26.8142ZM41.1493 27.2494C41.3189 27.0602 41.4731 26.9134 41.5974 26.8142L40.9733 26.0328C40.7949 26.1754 40.6005 26.3634 40.4046 26.582L41.1493 27.2494ZM40.2133 28.5995C40.4608 28.1195 40.8088 27.6293 41.1493 27.2494L40.4046 26.582C40.0127 27.0193 39.6145 27.5788 39.3245 28.1412L40.2133 28.5995ZM38.8661 29.03C39.357 29.2831 39.9601 29.0904 40.2133 28.5995L39.3245 28.1412H39.3245L38.8661 29.03ZM38.4357 27.6828C38.1826 28.1737 38.3753 28.7768 38.8661 29.03L39.3245 28.1412H39.3245L38.4357 27.6828ZM39.6599 25.9146C39.2166 26.4092 38.7681 27.0382 38.4357 27.6828L39.3245 28.1412C39.6145 27.5788 40.0127 27.0193 40.4046 26.582L39.6599 25.9146ZM40.3492 25.2515C40.1166 25.4373 39.8822 25.6666 39.6599 25.9146L40.4046 26.582C40.6005 26.3634 40.7949 26.1754 40.9733 26.0328L40.3492 25.2515ZM41.1804 24.7928C40.8517 24.8836 40.5621 25.0815 40.3492 25.2515L40.9733 26.0328C41.1515 25.8905 41.3141 25.7933 41.4466 25.7567L41.1804 24.7928ZM41.3954 24.6196C41.3039 24.7016 41.2379 24.7505 41.1958 24.7778C41.1487 24.8084 41.1462 24.8023 41.1804 24.7928L41.4466 25.7567C41.6314 25.7057 41.8377 25.5661 42.0628 25.3643L41.3954 24.6196ZM42.0412 23.9378C41.7855 24.2333 41.5731 24.4605 41.3954 24.6196L42.0628 25.3643C42.2887 25.1619 42.5343 24.8962 42.7974 24.5921L42.0412 23.9378ZM43.4517 23.8359C43.0341 23.4745 42.4026 23.5201 42.0412 23.9378L42.7974 24.5921L43.4517 23.8359ZM40.2653 33.8152C40.6559 33.4247 40.6559 32.7916 40.2654 32.401L39.5583 33.1081H39.5583L40.2653 33.8152ZM37.9647 37.1042C38.0941 36.5403 38.4055 35.9753 38.8281 35.4127C39.2497 34.8515 39.7612 34.3193 40.2653 33.8152L39.5583 33.1081C39.0501 33.6162 38.4956 34.1905 38.0286 34.8121C37.5627 35.4324 37.163 36.1266 36.99 36.8805L37.9647 37.1042ZM38.1824 38.7656C37.878 38.1725 37.8441 37.6296 37.9647 37.1042L36.99 36.8805C36.8202 37.6205 36.8739 38.4061 37.2926 39.2221L38.1824 38.7656ZM40.3412 40.9156C39.1386 40.1121 38.4985 39.3818 38.1824 38.7656L37.2926 39.2221C37.7114 40.0382 38.4952 40.8849 39.7856 41.7471L40.3412 40.9156ZM40.6171 42.3027C40.9239 41.8434 40.8004 41.2224 40.3412 40.9156L39.7856 41.7471H39.7856L40.6171 42.3027ZM39.2301 42.5786C39.6893 42.8854 40.3103 42.7619 40.6171 42.3027L39.7856 41.7471H39.7856L39.2301 42.5786ZM36.4029 39.6786C36.9243 40.6947 37.8518 41.6577 39.2301 42.5786L39.7856 41.7471C38.4952 40.8849 37.7114 40.0382 37.2926 39.2221L36.4029 39.6786ZM36.0153 36.6568C35.7963 37.6112 35.8697 38.6394 36.4029 39.6786L37.2926 39.2221C36.8739 38.4061 36.8202 37.6205 36.99 36.8805L36.0153 36.6568ZM38.8512 32.401C37.8901 33.362 36.4293 34.8529 36.0153 36.6568L36.99 36.8805C37.3297 35.4003 38.5638 34.1025 39.5583 33.1081L38.8512 32.401ZM40.2654 32.401C39.8749 32.0105 39.2417 32.0105 38.8512 32.401L39.5583 33.1081H39.5583L40.2654 32.401Z" fill="url(#paint1_linear_311_618)"/>
<path id="Path 48" fill-rule="evenodd" clip-rule="evenodd" d="M81.336 48.6529C80.4812 47.8688 78.2112 48.2081 76.3207 48.8722C74.4302 49.5363 72.2383 53.605 75.0183 53.8229C77.7983 54.0408 77.2745 54.1997 79.626 55.1885C81.9774 56.1774 84.3169 53.4771 84.0836 51.6526C83.8503 49.8282 82.1907 49.4369 81.336 48.6529Z" stroke="url(#paint2_linear_311_618)" stroke-linecap="round" stroke-linejoin="round"/>
<path id="Oval 15" d="M70.1902 11.3869C63.0872 4.93322 53.6529 1 43.2999 1C32.8594 1 23.3531 4.99999 16.23 11.5511" stroke="url(#paint3_linear_311_618)" stroke-linecap="round" stroke-linejoin="round"/>
<path id="Oval 15_2" d="M3.2998 41C3.2998 63.0914 21.2084 81 43.2998 81V81C55.0621 81 65.6387 75.9231 72.9576 67.841" stroke="url(#paint4_linear_311_618)" stroke-linecap="round" stroke-linejoin="round"/>
<circle id="Oval Copy 207" cx="16.9" cy="11.4" r="1.65" transform="rotate(-90 16.9 11.4)" fill="url(#paint5_linear_311_618)" stroke="url(#paint6_linear_311_618)" stroke-width="1.5"/>
<circle id="Oval Copy 210" cx="69.6998" cy="11.4" r="1.65" transform="rotate(-90 69.6998 11.4)" fill="url(#paint7_linear_311_618)" stroke="url(#paint8_linear_311_618)" stroke-width="1.5"/>
<circle id="Oval Copy 208" cx="72.9" cy="67.4" r="1.65" transform="rotate(-90 72.9 67.4)" fill="url(#paint9_linear_311_618)" stroke="url(#paint10_linear_311_618)" stroke-width="1.5"/>
<circle id="Oval Copy 209" cx="3.2999" cy="41.7999" r="1.65" transform="rotate(-90 3.2999 41.7999)" fill="url(#paint11_linear_311_618)" stroke="url(#paint12_linear_311_618)" stroke-width="1.5"/>
</g>
<defs>
<linearGradient id="paint0_linear_311_618" x1="29.7" y1="35.5865" x2="6.37136" y2="36.6966" gradientUnits="userSpaceOnUse">
<stop stop-color="#B4F1FF"/>
<stop offset="0.604167" stop-color="#EDA3FF"/>
<stop offset="1" stop-color="#FDCAE4"/>
</linearGradient>
<linearGradient id="paint1_linear_311_618" x1="78.9999" y1="34.0329" x2="36.4814" y2="38.2322" gradientUnits="userSpaceOnUse">
<stop stop-color="#B4F1FF"/>
<stop offset="0.604167" stop-color="#EDA3FF"/>
<stop offset="1" stop-color="#FDCAE4"/>
</linearGradient>
<linearGradient id="paint2_linear_311_618" x1="84.0997" y1="51.1135" x2="73.7635" y2="52.3384" gradientUnits="userSpaceOnUse">
<stop stop-color="#B4F1FF"/>
<stop offset="0.604167" stop-color="#EDA3FF"/>
<stop offset="1" stop-color="#FDCAE4"/>
</linearGradient>
<linearGradient id="paint3_linear_311_618" x1="70.1902" y1="5.26964" x2="23.9483" y2="24.6713" gradientUnits="userSpaceOnUse">
<stop stop-color="#B4F1FF"/>
<stop offset="0.604167" stop-color="#EDA3FF"/>
<stop offset="1" stop-color="#FDCAE4"/>
</linearGradient>
<linearGradient id="paint4_linear_311_618" x1="72.9576" y1="57.1865" x2="4.15926" y2="67.0157" gradientUnits="userSpaceOnUse">
<stop stop-color="#B4F1FF"/>
<stop offset="0.604167" stop-color="#EDA3FF"/>
<stop offset="1" stop-color="#FDCAE4"/>
</linearGradient>
<linearGradient id="paint5_linear_311_618" x1="19.3" y1="10.9424" x2="14.4948" y2="11.3367" gradientUnits="userSpaceOnUse">
<stop stop-color="#B4F1FF"/>
<stop offset="0.604167" stop-color="#EDA3FF"/>
<stop offset="1" stop-color="#FDCAE4"/>
</linearGradient>
<linearGradient id="paint6_linear_311_618" x1="19.3" y1="10.9424" x2="14.4948" y2="11.3367" gradientUnits="userSpaceOnUse">
<stop stop-color="#B4F1FF"/>
<stop offset="0.604167" stop-color="#EDA3FF"/>
<stop offset="1" stop-color="#FDCAE4"/>
</linearGradient>
<linearGradient id="paint7_linear_311_618" x1="72.0998" y1="10.9424" x2="67.2946" y2="11.3367" gradientUnits="userSpaceOnUse">
<stop stop-color="#B4F1FF"/>
<stop offset="0.604167" stop-color="#EDA3FF"/>
<stop offset="1" stop-color="#FDCAE4"/>
</linearGradient>
<linearGradient id="paint8_linear_311_618" x1="72.0998" y1="10.9424" x2="67.2946" y2="11.3367" gradientUnits="userSpaceOnUse">
<stop stop-color="#B4F1FF"/>
<stop offset="0.604167" stop-color="#EDA3FF"/>
<stop offset="1" stop-color="#FDCAE4"/>
</linearGradient>
<linearGradient id="paint9_linear_311_618" x1="75.3" y1="66.9424" x2="70.4948" y2="67.3366" gradientUnits="userSpaceOnUse">
<stop stop-color="#B4F1FF"/>
<stop offset="0.604167" stop-color="#EDA3FF"/>
<stop offset="1" stop-color="#FDCAE4"/>
</linearGradient>
<linearGradient id="paint10_linear_311_618" x1="75.3" y1="66.9424" x2="70.4948" y2="67.3366" gradientUnits="userSpaceOnUse">
<stop stop-color="#B4F1FF"/>
<stop offset="0.604167" stop-color="#EDA3FF"/>
<stop offset="1" stop-color="#FDCAE4"/>
</linearGradient>
<linearGradient id="paint11_linear_311_618" x1="5.6999" y1="41.3423" x2="0.894701" y2="41.7366" gradientUnits="userSpaceOnUse">
<stop stop-color="#B4F1FF"/>
<stop offset="0.604167" stop-color="#EDA3FF"/>
<stop offset="1" stop-color="#FDCAE4"/>
</linearGradient>
<linearGradient id="paint12_linear_311_618" x1="5.6999" y1="41.3423" x2="0.894701" y2="41.7366" gradientUnits="userSpaceOnUse">
<stop stop-color="#B4F1FF"/>
<stop offset="0.604167" stop-color="#EDA3FF"/>
<stop offset="1" stop-color="#FDCAE4"/>
</linearGradient>
</defs>
</svg>
