<svg width="82" height="84" viewBox="0 0 82 84" fill="none" xmlns="http://www.w3.org/2000/svg">
<g id="multi-media-formats">
<g id="strategy-chart-model">
<path id="Stroke 1" fill-rule="evenodd" clip-rule="evenodd" d="M67.2068 28.9656C67.2068 43.4388 55.4766 55.1725 40.9999 55.1725C26.5232 55.1725 14.793 43.4388 14.793 28.9656C14.793 14.4924 26.5232 2.75867 40.9999 2.75867C55.4766 2.75867 67.2068 14.4924 67.2068 28.9656Z" stroke="url(#paint0_linear_77_90)" stroke-linecap="round" stroke-linejoin="round"/>
<path id="Stroke 3" fill-rule="evenodd" clip-rule="evenodd" d="M53.4138 56.5517C53.4138 71.0249 41.6836 82.7586 27.2069 82.7586C12.7302 82.7586 1 71.0249 1 56.5517C1 42.0785 12.7302 30.3448 27.2069 30.3448C41.6836 30.3448 53.4138 42.0785 53.4138 56.5517Z" stroke="url(#paint1_linear_77_90)" stroke-linecap="round" stroke-linejoin="round"/>
<path id="Stroke 5" fill-rule="evenodd" clip-rule="evenodd" d="M81.0002 56.5517C81.0002 71.0249 69.27 82.7586 54.7933 82.7586C40.3166 82.7586 28.5864 71.0249 28.5864 56.5517C28.5864 42.0785 40.3166 30.3448 54.7933 30.3448C69.27 30.3448 81.0002 42.0785 81.0002 56.5517Z" stroke="url(#paint2_linear_77_90)" stroke-linecap="round" stroke-linejoin="round"/>
<circle id="Oval Copy 44" cx="29.5057" cy="52.4137" r="2.00862" transform="rotate(-90 29.5057 52.4137)" fill="url(#paint3_linear_77_90)" stroke="url(#paint4_linear_77_90)" stroke-width="1.5"/>
<circle id="Oval Copy 45" cx="53.4139" cy="52.4137" r="2.00862" transform="rotate(-90 53.4139 52.4137)" fill="url(#paint5_linear_77_90)" stroke="url(#paint6_linear_77_90)" stroke-width="1.5"/>
<circle id="Oval Copy 46" cx="41.4598" cy="34.023" r="2.00862" transform="rotate(-90 41.4598 34.023)" fill="url(#paint7_linear_77_90)" stroke="url(#paint8_linear_77_90)" stroke-width="1.5"/>
<circle id="Oval Copy 50" cx="40.5404" cy="2.75859" r="2.00862" transform="rotate(-90 40.5404 2.75859)" fill="url(#paint9_linear_77_90)" stroke="url(#paint10_linear_77_90)" stroke-width="1.5"/>
<circle id="Oval Copy 51" cx="78.2415" cy="68.0459" r="2.00862" transform="rotate(-90 78.2415 68.0459)" fill="url(#paint11_linear_77_90)" stroke="url(#paint12_linear_77_90)" stroke-width="1.5"/>
<circle id="Oval Copy 52" cx="3.75862" cy="67.1264" r="2.00862" transform="rotate(-90 3.75862 67.1264)" fill="url(#paint13_linear_77_90)" stroke="url(#paint14_linear_77_90)" stroke-width="1.5"/>
</g>
</g>
<defs>
<linearGradient id="paint0_linear_77_90" x1="67.2068" y1="23.9686" x2="14.7362" y2="28.2733" gradientUnits="userSpaceOnUse">
<stop stop-color="#B4F1FF"/>
<stop offset="0.604167" stop-color="#EDA3FF"/>
<stop offset="1" stop-color="#FDCAE4"/>
</linearGradient>
<linearGradient id="paint1_linear_77_90" x1="53.4138" y1="51.5548" x2="0.943208" y2="55.8595" gradientUnits="userSpaceOnUse">
<stop stop-color="#B4F1FF"/>
<stop offset="0.604167" stop-color="#EDA3FF"/>
<stop offset="1" stop-color="#FDCAE4"/>
</linearGradient>
<linearGradient id="paint2_linear_77_90" x1="81.0002" y1="51.5548" x2="28.5296" y2="55.8595" gradientUnits="userSpaceOnUse">
<stop stop-color="#B4F1FF"/>
<stop offset="0.604167" stop-color="#EDA3FF"/>
<stop offset="1" stop-color="#FDCAE4"/>
</linearGradient>
<linearGradient id="paint3_linear_77_90" x1="32.2643" y1="51.8877" x2="26.7411" y2="52.3409" gradientUnits="userSpaceOnUse">
<stop stop-color="#B4F1FF"/>
<stop offset="0.604167" stop-color="#EDA3FF"/>
<stop offset="1" stop-color="#FDCAE4"/>
</linearGradient>
<linearGradient id="paint4_linear_77_90" x1="32.2643" y1="51.8877" x2="26.7411" y2="52.3409" gradientUnits="userSpaceOnUse">
<stop stop-color="#B4F1FF"/>
<stop offset="0.604167" stop-color="#EDA3FF"/>
<stop offset="1" stop-color="#FDCAE4"/>
</linearGradient>
<linearGradient id="paint5_linear_77_90" x1="56.1725" y1="51.8877" x2="50.6493" y2="52.3409" gradientUnits="userSpaceOnUse">
<stop stop-color="#B4F1FF"/>
<stop offset="0.604167" stop-color="#EDA3FF"/>
<stop offset="1" stop-color="#FDCAE4"/>
</linearGradient>
<linearGradient id="paint6_linear_77_90" x1="56.1725" y1="51.8877" x2="50.6493" y2="52.3409" gradientUnits="userSpaceOnUse">
<stop stop-color="#B4F1FF"/>
<stop offset="0.604167" stop-color="#EDA3FF"/>
<stop offset="1" stop-color="#FDCAE4"/>
</linearGradient>
<linearGradient id="paint7_linear_77_90" x1="44.2184" y1="33.497" x2="38.6952" y2="33.9501" gradientUnits="userSpaceOnUse">
<stop stop-color="#B4F1FF"/>
<stop offset="0.604167" stop-color="#EDA3FF"/>
<stop offset="1" stop-color="#FDCAE4"/>
</linearGradient>
<linearGradient id="paint8_linear_77_90" x1="44.2184" y1="33.497" x2="38.6952" y2="33.9501" gradientUnits="userSpaceOnUse">
<stop stop-color="#B4F1FF"/>
<stop offset="0.604167" stop-color="#EDA3FF"/>
<stop offset="1" stop-color="#FDCAE4"/>
</linearGradient>
<linearGradient id="paint9_linear_77_90" x1="43.299" y1="2.23259" x2="37.7758" y2="2.68572" gradientUnits="userSpaceOnUse">
<stop stop-color="#B4F1FF"/>
<stop offset="0.604167" stop-color="#EDA3FF"/>
<stop offset="1" stop-color="#FDCAE4"/>
</linearGradient>
<linearGradient id="paint10_linear_77_90" x1="43.299" y1="2.23259" x2="37.7758" y2="2.68572" gradientUnits="userSpaceOnUse">
<stop stop-color="#B4F1FF"/>
<stop offset="0.604167" stop-color="#EDA3FF"/>
<stop offset="1" stop-color="#FDCAE4"/>
</linearGradient>
<linearGradient id="paint11_linear_77_90" x1="81.0002" y1="67.5199" x2="75.4769" y2="67.9731" gradientUnits="userSpaceOnUse">
<stop stop-color="#B4F1FF"/>
<stop offset="0.604167" stop-color="#EDA3FF"/>
<stop offset="1" stop-color="#FDCAE4"/>
</linearGradient>
<linearGradient id="paint12_linear_77_90" x1="81.0002" y1="67.5199" x2="75.4769" y2="67.9731" gradientUnits="userSpaceOnUse">
<stop stop-color="#B4F1FF"/>
<stop offset="0.604167" stop-color="#EDA3FF"/>
<stop offset="1" stop-color="#FDCAE4"/>
</linearGradient>
<linearGradient id="paint13_linear_77_90" x1="6.51724" y1="66.6004" x2="0.994022" y2="67.0535" gradientUnits="userSpaceOnUse">
<stop stop-color="#B4F1FF"/>
<stop offset="0.604167" stop-color="#EDA3FF"/>
<stop offset="1" stop-color="#FDCAE4"/>
</linearGradient>
<linearGradient id="paint14_linear_77_90" x1="6.51724" y1="66.6004" x2="0.994022" y2="67.0535" gradientUnits="userSpaceOnUse">
<stop stop-color="#B4F1FF"/>
<stop offset="0.604167" stop-color="#EDA3FF"/>
<stop offset="1" stop-color="#FDCAE4"/>
</linearGradient>
</defs>
</svg>
