<svg width="88" height="70" viewBox="0 0 88 70" fill="none" xmlns="http://www.w3.org/2000/svg">
<g id="mobile-decentral">
<path id="Path 303 Copy 2" d="M14.437 39.9821C14.437 44.0095 14.437 47.2414 14.437 47.683C14.437 48.9198 13.2283 49.4958 12.4658 49.4958C11.7033 49.4958 3.95746 49.4958 2.98075 49.4958C2.00404 49.4958 1 48.5714 1 47.5246C1 46.4778 1 23.3758 1 22.1353V22.1353C1 20.8947 2.04868 20 3.1092 20C4.16971 20 11.2382 20 12.2783 20C13.3183 20 14.437 20.9549 14.437 22.1353C14.437 22.5649 14.437 25.9025 14.437 30.034" stroke="url(#paint0_linear_73_948)" stroke-linecap="round" stroke-linejoin="round"/>
<path id="Path 303 Copy 2_2" d="M1 25.3109C1 23.9683 1.72095 23 2.78147 23C3.84198 23 11.566 23 12.606 23C13.646 23 14.437 24.0335 14.437 25.3109" stroke="url(#paint1_linear_73_948)" stroke-linecap="round" stroke-linejoin="round"/>
<path id="Path 303 Copy 2_3" d="M74 25.3109C74 23.9683 74.721 23 75.7815 23C76.842 23 84.566 23 85.606 23C86.646 23 87.437 24.0335 87.437 25.3109" stroke="url(#paint2_linear_73_948)" stroke-linecap="round" stroke-linejoin="round"/>
<path id="Path 303 Copy" d="M74 29.9513C74 25.7722 74 22.5659 74 22.1115C74 20.8848 74.7211 20 75.7819 20C76.8426 20 84.5684 20 85.6086 20C86.6489 20 87.44 20.9443 87.44 22.1115C87.44 23.2788 87.44 46.1523 87.44 47.3754C87.44 48.5984 86.5589 49.1681 85.7962 49.1681C85.0335 49.1681 76.6303 49.1681 75.6534 49.1681C74.6765 49.1681 74 48.254 74 47.2188C74 46.8526 74 43.8822 74 39.9806" stroke="url(#paint3_linear_73_948)" stroke-linecap="round" stroke-linejoin="round"/>
<path id="Path 309" d="M18.2678 31.2323L40.4009 9.09924" stroke="url(#paint4_linear_73_948)" stroke-linecap="round" stroke-linejoin="round"/>
<path id="Path 309_2" d="M18.2383 38.7381L40.3983 60.8982" stroke="url(#paint5_linear_73_948)" stroke-linecap="round" stroke-linejoin="round"/>
<path id="Path 309_3" d="M19.8491 33.2164L39.7318 26.587" stroke="url(#paint6_linear_73_948)" stroke-linecap="round" stroke-linejoin="round"/>
<path id="Path 309_4" fill-rule="evenodd" clip-rule="evenodd" d="M39.3658 43.2909L19.6758 36.7257L39.3658 43.2909Z" stroke="url(#paint7_linear_73_948)" stroke-linecap="round" stroke-linejoin="round"/>
<path id="Path 309_5" d="M69.9905 30.9905L48.0329 9.03296" stroke="url(#paint8_linear_73_948)" stroke-linecap="round" stroke-linejoin="round"/>
<path id="Path 309_6" d="M70.0791 38.9208L48.119 60.8809" stroke="url(#paint9_linear_73_948)" stroke-linecap="round" stroke-linejoin="round"/>
<path id="Path 309_7" fill-rule="evenodd" clip-rule="evenodd" d="M68.3581 33.1188L48.9971 26.6633L68.3581 33.1188Z" stroke="url(#paint10_linear_73_948)" stroke-linecap="round" stroke-linejoin="round"/>
<path id="Path 309_8" fill-rule="evenodd" clip-rule="evenodd" d="M68.5441 36.8191L49.2241 43.2609L68.5441 36.8191Z" stroke="url(#paint11_linear_73_948)" stroke-linecap="round" stroke-linejoin="round"/>
<circle id="Oval 43" cx="44.25" cy="6" r="5" stroke="url(#paint12_linear_73_948)" stroke-linecap="round" stroke-linejoin="round"/>
<circle id="Oval 43_2" cx="44.25" cy="25" r="5" stroke="url(#paint13_linear_73_948)" stroke-linecap="round" stroke-linejoin="round"/>
<circle id="Oval 43_3" cx="44.25" cy="44" r="5" stroke="url(#paint14_linear_73_948)" stroke-linecap="round" stroke-linejoin="round"/>
<circle id="Oval 43_4" cx="44.25" cy="64" r="5" stroke="url(#paint15_linear_73_948)" stroke-linecap="round" stroke-linejoin="round"/>
<circle id="Oval 43_5" cx="73" cy="35" r="5" stroke="url(#paint16_linear_73_948)" stroke-linecap="round" stroke-linejoin="round"/>
<circle id="Oval 43_6" cx="15" cy="35" r="5" stroke="url(#paint17_linear_73_948)" stroke-linecap="round" stroke-linejoin="round"/>
<circle id="Oval Copy 204" cx="15" cy="35" r="3" transform="rotate(-90 15 35)" fill="url(#paint18_linear_73_948)"/>
<circle id="Oval Copy 208" cx="73" cy="35" r="3" transform="rotate(-90 73 35)" fill="url(#paint19_linear_73_948)"/>
<circle id="Oval Copy 209" cx="44.25" cy="25" r="3" transform="rotate(-90 44.25 25)" fill="url(#paint20_linear_73_948)"/>
<circle id="Oval Copy 210" cx="44.25" cy="6" r="3" transform="rotate(-90 44.25 6)" fill="url(#paint21_linear_73_948)"/>
<circle id="Oval Copy 211" cx="44.25" cy="44" r="3" transform="rotate(-90 44.25 44)" fill="url(#paint22_linear_73_948)"/>
<circle id="Oval Copy 212" cx="44.25" cy="64" r="3" transform="rotate(-90 44.25 64)" fill="url(#paint23_linear_73_948)"/>
</g>
<defs>
<linearGradient id="paint0_linear_73_948" x1="14.437" y1="31.9359" x2="0.913793" y2="32.4413" gradientUnits="userSpaceOnUse">
<stop stop-color="#B4F1FF"/>
<stop offset="0.604167" stop-color="#EDA3FF"/>
<stop offset="1" stop-color="#FDCAE4"/>
</linearGradient>
<linearGradient id="paint1_linear_73_948" x1="14.437" y1="23.9351" x2="3.40523" y2="29.1976" gradientUnits="userSpaceOnUse">
<stop stop-color="#B4F1FF"/>
<stop offset="0.604167" stop-color="#EDA3FF"/>
<stop offset="1" stop-color="#FDCAE4"/>
</linearGradient>
<linearGradient id="paint2_linear_73_948" x1="87.437" y1="23.9351" x2="76.4052" y2="29.1976" gradientUnits="userSpaceOnUse">
<stop stop-color="#B4F1FF"/>
<stop offset="0.604167" stop-color="#EDA3FF"/>
<stop offset="1" stop-color="#FDCAE4"/>
</linearGradient>
<linearGradient id="paint3_linear_73_948" x1="87.44" y1="31.8032" x2="73.9142" y2="32.3145" gradientUnits="userSpaceOnUse">
<stop stop-color="#B4F1FF"/>
<stop offset="0.604167" stop-color="#EDA3FF"/>
<stop offset="1" stop-color="#FDCAE4"/>
</linearGradient>
<linearGradient id="paint4_linear_73_948" x1="40.4009" y1="18.0557" x2="18.2438" y2="19.8734" gradientUnits="userSpaceOnUse">
<stop stop-color="#B4F1FF"/>
<stop offset="0.604167" stop-color="#EDA3FF"/>
<stop offset="1" stop-color="#FDCAE4"/>
</linearGradient>
<linearGradient id="paint5_linear_73_948" x1="40.3983" y1="51.9308" x2="18.2143" y2="50.1108" gradientUnits="userSpaceOnUse">
<stop stop-color="#B4F1FF"/>
<stop offset="0.604167" stop-color="#EDA3FF"/>
<stop offset="1" stop-color="#FDCAE4"/>
</linearGradient>
<linearGradient id="paint6_linear_73_948" x1="39.7318" y1="29.2697" x2="20.8375" y2="33.9187" gradientUnits="userSpaceOnUse">
<stop stop-color="#B4F1FF"/>
<stop offset="0.604167" stop-color="#EDA3FF"/>
<stop offset="1" stop-color="#FDCAE4"/>
</linearGradient>
<linearGradient id="paint7_linear_73_948" x1="39.3658" y1="39.3824" x2="20.6546" y2="43.9863" gradientUnits="userSpaceOnUse">
<stop stop-color="#B4F1FF"/>
<stop offset="0.604167" stop-color="#EDA3FF"/>
<stop offset="1" stop-color="#FDCAE4"/>
</linearGradient>
<linearGradient id="paint8_linear_73_948" x1="48.0329" y1="17.9184" x2="70.0143" y2="19.7217" gradientUnits="userSpaceOnUse">
<stop stop-color="#B4F1FF"/>
<stop offset="0.604167" stop-color="#EDA3FF"/>
<stop offset="1" stop-color="#FDCAE4"/>
</linearGradient>
<linearGradient id="paint9_linear_73_948" x1="48.119" y1="51.9944" x2="70.1029" y2="50.1909" gradientUnits="userSpaceOnUse">
<stop stop-color="#B4F1FF"/>
<stop offset="0.604167" stop-color="#EDA3FF"/>
<stop offset="1" stop-color="#FDCAE4"/>
</linearGradient>
<linearGradient id="paint10_linear_73_948" x1="68.3581" y1="29.2756" x2="49.9595" y2="33.8026" gradientUnits="userSpaceOnUse">
<stop stop-color="#B4F1FF"/>
<stop offset="0.604167" stop-color="#EDA3FF"/>
<stop offset="1" stop-color="#FDCAE4"/>
</linearGradient>
<linearGradient id="paint11_linear_73_948" x1="68.5441" y1="39.4259" x2="50.1845" y2="43.9433" gradientUnits="userSpaceOnUse">
<stop stop-color="#B4F1FF"/>
<stop offset="0.604167" stop-color="#EDA3FF"/>
<stop offset="1" stop-color="#FDCAE4"/>
</linearGradient>
<linearGradient id="paint12_linear_73_948" x1="49.25" y1="5.04663" x2="39.2392" y2="5.86792" gradientUnits="userSpaceOnUse">
<stop stop-color="#B4F1FF"/>
<stop offset="0.604167" stop-color="#EDA3FF"/>
<stop offset="1" stop-color="#FDCAE4"/>
</linearGradient>
<linearGradient id="paint13_linear_73_948" x1="49.25" y1="24.0466" x2="39.2392" y2="24.8679" gradientUnits="userSpaceOnUse">
<stop stop-color="#B4F1FF"/>
<stop offset="0.604167" stop-color="#EDA3FF"/>
<stop offset="1" stop-color="#FDCAE4"/>
</linearGradient>
<linearGradient id="paint14_linear_73_948" x1="49.25" y1="43.0466" x2="39.2392" y2="43.8679" gradientUnits="userSpaceOnUse">
<stop stop-color="#B4F1FF"/>
<stop offset="0.604167" stop-color="#EDA3FF"/>
<stop offset="1" stop-color="#FDCAE4"/>
</linearGradient>
<linearGradient id="paint15_linear_73_948" x1="49.25" y1="63.0466" x2="39.2392" y2="63.8679" gradientUnits="userSpaceOnUse">
<stop stop-color="#B4F1FF"/>
<stop offset="0.604167" stop-color="#EDA3FF"/>
<stop offset="1" stop-color="#FDCAE4"/>
</linearGradient>
<linearGradient id="paint16_linear_73_948" x1="78" y1="34.0466" x2="67.9892" y2="34.8679" gradientUnits="userSpaceOnUse">
<stop stop-color="#B4F1FF"/>
<stop offset="0.604167" stop-color="#EDA3FF"/>
<stop offset="1" stop-color="#FDCAE4"/>
</linearGradient>
<linearGradient id="paint17_linear_73_948" x1="20" y1="34.0466" x2="9.98916" y2="34.8679" gradientUnits="userSpaceOnUse">
<stop stop-color="#B4F1FF"/>
<stop offset="0.604167" stop-color="#EDA3FF"/>
<stop offset="1" stop-color="#FDCAE4"/>
</linearGradient>
<linearGradient id="paint18_linear_73_948" x1="18" y1="34.428" x2="11.9935" y2="34.9208" gradientUnits="userSpaceOnUse">
<stop stop-color="#B4F1FF"/>
<stop offset="0.604167" stop-color="#EDA3FF"/>
<stop offset="1" stop-color="#FDCAE4"/>
</linearGradient>
<linearGradient id="paint19_linear_73_948" x1="76" y1="34.428" x2="69.9935" y2="34.9208" gradientUnits="userSpaceOnUse">
<stop stop-color="#B4F1FF"/>
<stop offset="0.604167" stop-color="#EDA3FF"/>
<stop offset="1" stop-color="#FDCAE4"/>
</linearGradient>
<linearGradient id="paint20_linear_73_948" x1="47.25" y1="24.428" x2="41.2435" y2="24.9208" gradientUnits="userSpaceOnUse">
<stop stop-color="#B4F1FF"/>
<stop offset="0.604167" stop-color="#EDA3FF"/>
<stop offset="1" stop-color="#FDCAE4"/>
</linearGradient>
<linearGradient id="paint21_linear_73_948" x1="47.25" y1="5.42798" x2="41.2435" y2="5.92075" gradientUnits="userSpaceOnUse">
<stop stop-color="#B4F1FF"/>
<stop offset="0.604167" stop-color="#EDA3FF"/>
<stop offset="1" stop-color="#FDCAE4"/>
</linearGradient>
<linearGradient id="paint22_linear_73_948" x1="47.25" y1="43.428" x2="41.2435" y2="43.9208" gradientUnits="userSpaceOnUse">
<stop stop-color="#B4F1FF"/>
<stop offset="0.604167" stop-color="#EDA3FF"/>
<stop offset="1" stop-color="#FDCAE4"/>
</linearGradient>
<linearGradient id="paint23_linear_73_948" x1="47.25" y1="63.428" x2="41.2435" y2="63.9208" gradientUnits="userSpaceOnUse">
<stop stop-color="#B4F1FF"/>
<stop offset="0.604167" stop-color="#EDA3FF"/>
<stop offset="1" stop-color="#FDCAE4"/>
</linearGradient>
</defs>
</svg>
