<svg width="526" height="351" viewBox="0 0 526 351" fill="none" xmlns="http://www.w3.org/2000/svg">
<g id="Radar base">
<g id="Radar Base" opacity="0.2">
<path id="Polygon 5 Copy 21" fill-rule="evenodd" clip-rule="evenodd" d="M300.524 24.6203L262.778 0.0428492C262.69 -0.0142831 262.582 -0.0142831 262.494 0.0428492L224.748 24.6203C224.559 24.7434 224.559 25.0512 224.748 25.1743L262.494 49.7518C262.582 49.8089 262.69 49.8089 262.778 49.7518L300.524 25.1743C300.713 25.0512 300.713 24.7434 300.524 24.6203ZM262.636 49.1056L225.457 24.8974L262.636 0.689178L299.815 24.8974L262.636 49.1056Z" fill="white"/>
<path id="Polygon 5 Copy 22" fill-rule="evenodd" clip-rule="evenodd" d="M337.958 48.9275L300.212 24.35C300.124 24.2928 300.016 24.2928 299.928 24.35L262.182 48.9275C261.993 49.0506 261.993 49.3583 262.182 49.4814L299.928 74.0589C300.016 74.1161 300.124 74.1161 300.212 74.0589L337.958 49.4814C338.147 49.3583 338.147 49.0506 337.958 48.9275ZM300.07 73.4127L262.891 49.2045L300.07 24.9963L337.249 49.2045L300.07 73.4127Z" fill="white"/>
<path id="Polygon 5 Copy 23" fill-rule="evenodd" clip-rule="evenodd" d="M375.393 73.2346L337.646 48.6571C337.559 48.6 337.45 48.6 337.363 48.6571L299.616 73.2346C299.427 73.3577 299.427 73.6655 299.616 73.7886L337.363 98.3661C337.45 98.4232 337.559 98.4232 337.646 98.3661L375.393 73.7886C375.582 73.6655 375.582 73.3577 375.393 73.2346ZM300.325 73.5117L337.504 49.3035L374.684 73.5117L337.504 97.7199L300.325 73.5117Z" fill="white"/>
<path id="Polygon 5 Copy 24" fill-rule="evenodd" clip-rule="evenodd" d="M412.827 97.5417L375.081 72.9642C374.993 72.9071 374.885 72.9071 374.797 72.9642L337.051 97.5417C336.862 97.6648 336.862 97.9726 337.051 98.0957L374.797 122.673C374.885 122.73 374.993 122.73 375.081 122.673L412.827 98.0957C413.016 97.9726 413.016 97.6648 412.827 97.5417ZM337.76 97.8188L374.939 73.6106L412.118 97.8188L374.939 122.027L337.76 97.8188Z" fill="white"/>
<path id="Polygon 5 Copy 25" fill-rule="evenodd" clip-rule="evenodd" d="M450.261 121.849L412.515 97.2714C412.427 97.2142 412.319 97.2142 412.231 97.2714L374.485 121.849C374.296 121.972 374.296 122.28 374.485 122.403L412.231 146.98C412.319 147.037 412.427 147.037 412.515 146.98L450.261 122.403C450.45 122.28 450.45 121.972 450.261 121.849ZM412.373 146.334L375.194 122.126L412.373 97.9178L449.552 122.126L412.373 146.334Z" fill="white"/>
<path id="Polygon 5 Copy 26" fill-rule="evenodd" clip-rule="evenodd" d="M487.695 146.156L449.949 121.579C449.861 121.522 449.753 121.522 449.665 121.579L411.919 146.156C411.73 146.279 411.73 146.587 411.919 146.71L449.665 171.288C449.753 171.345 449.861 171.345 449.949 171.288L487.695 146.71C487.884 146.587 487.884 146.279 487.695 146.156ZM449.807 170.641L412.628 146.433L449.807 122.225L486.986 146.433L449.807 170.641Z" fill="white"/>
<path id="Polygon 5 Copy 27" fill-rule="evenodd" clip-rule="evenodd" d="M525.13 170.463L487.384 145.886C487.296 145.829 487.188 145.829 487.1 145.886L449.354 170.463C449.165 170.586 449.165 170.894 449.354 171.017L487.1 195.595C487.188 195.652 487.296 195.652 487.384 195.595L525.13 171.017C525.319 170.894 525.319 170.586 525.13 170.463ZM487.242 194.948L450.063 170.74L487.242 146.532L524.421 170.74L487.242 194.948Z" fill="white"/>
<path id="Polygon 5 Copy 21_2" fill-rule="evenodd" clip-rule="evenodd" d="M263.09 48.9275L225.343 24.35C225.256 24.2928 225.147 24.2928 225.06 24.35L187.313 48.9275C187.124 49.0506 187.124 49.3583 187.313 49.4814L225.06 74.0589C225.147 74.1161 225.256 74.1161 225.343 74.0589L263.09 49.4814C263.279 49.3583 263.279 49.0506 263.09 48.9275ZM225.201 73.4127L188.022 49.2045L225.201 24.9963L262.381 49.2045L225.201 73.4127Z" fill="white"/>
<path id="Polygon 5 Copy 22_2" fill-rule="evenodd" clip-rule="evenodd" d="M300.524 73.2346L262.778 48.6571C262.69 48.6 262.582 48.6 262.494 48.6571L224.748 73.2346C224.559 73.3577 224.559 73.6655 224.748 73.7886L262.494 98.3661C262.582 98.4232 262.69 98.4232 262.778 98.3661L300.524 73.7886C300.713 73.6655 300.713 73.3577 300.524 73.2346ZM262.636 97.7199L225.457 73.5117L262.636 49.3035L299.815 73.5117L262.636 97.7199Z" fill="white"/>
<path id="Polygon 5 Copy 23_2" fill-rule="evenodd" clip-rule="evenodd" d="M337.958 97.5417L300.212 72.9642C300.124 72.9071 300.016 72.9071 299.928 72.9642L262.182 97.5417C261.993 97.6648 261.993 97.9726 262.182 98.0957L299.928 122.673C300.016 122.73 300.124 122.73 300.212 122.673L337.958 98.0957C338.147 97.9726 338.147 97.6648 337.958 97.5417ZM300.07 122.027L262.891 97.8188L300.07 73.6106L337.249 97.8188L300.07 122.027Z" fill="white"/>
<path id="Polygon 5 Copy 24_2" fill-rule="evenodd" clip-rule="evenodd" d="M375.393 121.849L337.646 97.2714C337.559 97.2142 337.45 97.2142 337.363 97.2714L299.616 121.849C299.427 121.972 299.427 122.28 299.616 122.403L337.363 146.98C337.45 147.037 337.559 147.037 337.646 146.98L375.393 122.403C375.582 122.28 375.582 121.972 375.393 121.849ZM337.504 146.334L300.325 122.126L337.504 97.9178L374.684 122.126L337.504 146.334Z" fill="white"/>
<path id="Polygon 5 Copy 25_2" fill-rule="evenodd" clip-rule="evenodd" d="M412.827 146.156L375.081 121.579C374.993 121.522 374.885 121.522 374.797 121.579L337.051 146.156C336.862 146.279 336.862 146.587 337.051 146.71L374.797 171.288C374.885 171.345 374.993 171.345 375.081 171.288L412.827 146.71C413.016 146.587 413.016 146.279 412.827 146.156ZM374.939 170.641L337.76 146.433L374.939 122.225L412.118 146.433L374.939 170.641Z" fill="white"/>
<path id="Polygon 5 Copy 26_2" fill-rule="evenodd" clip-rule="evenodd" d="M450.261 170.463L412.515 145.886C412.427 145.829 412.319 145.829 412.231 145.886L374.485 170.463C374.296 170.586 374.296 170.894 374.485 171.017L412.231 195.595C412.319 195.652 412.427 195.652 412.515 195.595L450.261 171.017C450.45 170.894 450.45 170.586 450.261 170.463ZM412.373 194.948L375.194 170.74L412.373 146.532L449.552 170.74L412.373 194.948Z" fill="white"/>
<path id="Polygon 5 Copy 27_2" fill-rule="evenodd" clip-rule="evenodd" d="M487.695 194.77L449.949 170.193C449.861 170.136 449.753 170.136 449.665 170.193L411.919 194.77C411.73 194.893 411.73 195.201 411.919 195.324L449.665 219.902C449.753 219.959 449.861 219.959 449.949 219.902L487.695 195.324C487.884 195.201 487.884 194.893 487.695 194.77ZM449.807 219.255L412.628 195.047L449.807 170.839L486.986 195.047L449.807 219.255Z" fill="white"/>
<path id="Polygon 5 Copy 21_3" fill-rule="evenodd" clip-rule="evenodd" d="M225.655 73.2346L187.909 48.6571C187.821 48.6 187.713 48.6 187.625 48.6571L149.879 73.2346C149.69 73.3577 149.69 73.6655 149.879 73.7886L187.625 98.3661C187.713 98.4232 187.821 98.4232 187.909 98.3661L225.655 73.7886C225.844 73.6655 225.844 73.3577 225.655 73.2346ZM187.767 97.7199L150.588 73.5117L187.767 49.3035L224.946 73.5117L187.767 97.7199Z" fill="white"/>
<path id="Polygon 5 Copy 22_3" fill-rule="evenodd" clip-rule="evenodd" d="M263.09 97.5417L225.343 72.9642C225.256 72.9071 225.147 72.9071 225.06 72.9642L187.313 97.5417C187.124 97.6648 187.124 97.9726 187.313 98.0957L225.06 122.673C225.147 122.73 225.256 122.73 225.343 122.673L263.09 98.0957C263.279 97.9726 263.279 97.6648 263.09 97.5417ZM188.022 97.8188L225.201 73.6106L262.381 97.8188L225.201 122.027L188.022 97.8188Z" fill="white"/>
<path id="Polygon 5 Copy 23_3" fill-rule="evenodd" clip-rule="evenodd" d="M300.524 121.849L262.778 97.2714C262.69 97.2142 262.582 97.2142 262.494 97.2714L224.748 121.849C224.559 121.972 224.559 122.28 224.748 122.403L262.494 146.98C262.582 147.037 262.69 147.037 262.778 146.98L300.524 122.403C300.713 122.28 300.713 121.972 300.524 121.849ZM262.636 146.334L225.457 122.126L262.636 97.9178L299.815 122.126L262.636 146.334Z" fill="white"/>
<path id="Polygon 5 Copy 24_3" fill-rule="evenodd" clip-rule="evenodd" d="M337.958 146.156L300.212 121.579C300.124 121.522 300.016 121.522 299.928 121.579L262.182 146.156C261.993 146.279 261.993 146.587 262.182 146.71L299.928 171.288C300.016 171.345 300.124 171.345 300.212 171.288L337.958 146.71C338.147 146.587 338.147 146.279 337.958 146.156ZM300.07 170.641L262.891 146.433L300.07 122.225L337.249 146.433L300.07 170.641Z" fill="white"/>
<path id="Polygon 5 Copy 25_3" fill-rule="evenodd" clip-rule="evenodd" d="M375.393 170.463L337.646 145.886C337.559 145.829 337.45 145.829 337.363 145.886L299.616 170.463C299.427 170.586 299.427 170.894 299.616 171.017L337.363 195.595C337.45 195.652 337.559 195.652 337.646 195.595L375.393 171.017C375.582 170.894 375.582 170.586 375.393 170.463ZM337.504 194.948L300.325 170.74L337.504 146.532L374.684 170.74L337.504 194.948Z" fill="white"/>
<path id="Polygon 5 Copy 26_3" fill-rule="evenodd" clip-rule="evenodd" d="M412.827 194.77L375.081 170.193C374.993 170.136 374.885 170.136 374.797 170.193L337.051 194.77C336.862 194.893 336.862 195.201 337.051 195.324L374.797 219.902C374.885 219.959 374.993 219.959 375.081 219.902L412.827 195.324C413.016 195.201 413.016 194.893 412.827 194.77ZM374.939 219.255L337.76 195.047L374.939 170.839L412.118 195.047L374.939 219.255Z" fill="white"/>
<path id="Polygon 5 Copy 27_3" fill-rule="evenodd" clip-rule="evenodd" d="M450.261 219.077L412.515 194.5C412.427 194.443 412.319 194.443 412.231 194.5L374.485 219.077C374.296 219.2 374.296 219.508 374.485 219.631L412.231 244.209C412.319 244.266 412.427 244.266 412.515 244.209L450.261 219.631C450.45 219.508 450.45 219.2 450.261 219.077ZM412.373 243.563L375.194 219.354L412.373 195.146L449.552 219.354L412.373 243.563Z" fill="white"/>
<path id="Polygon 5 Copy 21_4" fill-rule="evenodd" clip-rule="evenodd" d="M188.221 97.5417L150.475 72.9642C150.387 72.9071 150.279 72.9071 150.191 72.9642L112.445 97.5417C112.256 97.6648 112.256 97.9726 112.445 98.0957L150.191 122.673C150.279 122.73 150.387 122.73 150.475 122.673L188.221 98.0957C188.41 97.9726 188.41 97.6648 188.221 97.5417ZM113.154 97.8188L150.333 73.6106L187.512 97.8188L150.333 122.027L113.154 97.8188Z" fill="white"/>
<path id="Polygon 5 Copy 22_4" fill-rule="evenodd" clip-rule="evenodd" d="M225.655 121.849L187.909 97.2714C187.821 97.2142 187.713 97.2142 187.625 97.2714L149.879 121.849C149.69 121.972 149.69 122.28 149.879 122.403L187.625 146.98C187.713 147.037 187.821 147.037 187.909 146.98L225.655 122.403C225.844 122.28 225.844 121.972 225.655 121.849ZM187.767 146.334L150.588 122.126L187.767 97.9178L224.946 122.126L187.767 146.334Z" fill="white"/>
<path id="Polygon 5 Copy 23_4" fill-rule="evenodd" clip-rule="evenodd" d="M263.09 146.156L225.343 121.579C225.256 121.522 225.147 121.522 225.06 121.579L187.313 146.156C187.124 146.279 187.124 146.587 187.313 146.71L225.06 171.288C225.147 171.345 225.256 171.345 225.343 171.288L263.09 146.71C263.279 146.587 263.279 146.279 263.09 146.156ZM225.201 170.641L188.022 146.433L225.201 122.225L262.381 146.433L225.201 170.641Z" fill="white"/>
<path id="Polygon 5 Copy 24_4" fill-rule="evenodd" clip-rule="evenodd" d="M300.524 170.463L262.778 145.886C262.69 145.829 262.582 145.829 262.494 145.886L224.748 170.463C224.559 170.586 224.559 170.894 224.748 171.017L262.494 195.595C262.582 195.652 262.69 195.652 262.778 195.595L300.524 171.017C300.713 170.894 300.713 170.586 300.524 170.463ZM262.636 194.948L225.457 170.74L262.636 146.532L299.815 170.74L262.636 194.948Z" fill="white"/>
<path id="Polygon 5 Copy 25_4" fill-rule="evenodd" clip-rule="evenodd" d="M337.958 194.77L300.212 170.193C300.124 170.136 300.016 170.136 299.928 170.193L262.182 194.77C261.993 194.893 261.993 195.201 262.182 195.324L299.928 219.902C300.016 219.959 300.124 219.959 300.212 219.902L337.958 195.324C338.147 195.201 338.147 194.893 337.958 194.77ZM300.07 219.255L262.891 195.047L300.07 170.839L337.249 195.047L300.07 219.255Z" fill="white"/>
<path id="Polygon 5 Copy 26_4" fill-rule="evenodd" clip-rule="evenodd" d="M375.393 219.077L337.646 194.5C337.559 194.443 337.45 194.443 337.363 194.5L299.616 219.077C299.427 219.2 299.427 219.508 299.616 219.631L337.363 244.209C337.45 244.266 337.559 244.266 337.646 244.209L375.393 219.631C375.582 219.508 375.582 219.2 375.393 219.077ZM337.504 243.563L300.325 219.354L337.504 195.146L374.684 219.354L337.504 243.563Z" fill="white"/>
<path id="Polygon 5 Copy 27_4" fill-rule="evenodd" clip-rule="evenodd" d="M412.827 243.385L375.081 218.807C374.993 218.75 374.885 218.75 374.797 218.807L337.051 243.385C336.862 243.508 336.862 243.816 337.051 243.939L374.797 268.516C374.885 268.573 374.993 268.573 375.081 268.516L412.827 243.939C413.016 243.816 413.016 243.508 412.827 243.385ZM374.939 267.87L337.76 243.662L374.939 219.454L412.118 243.662L374.939 267.87Z" fill="white"/>
<path id="Polygon 5 Copy 21_5" fill-rule="evenodd" clip-rule="evenodd" d="M150.787 121.849L113.04 97.2714C112.953 97.2142 112.844 97.2142 112.757 97.2714L75.0104 121.849C74.8214 121.972 74.8214 122.28 75.0104 122.403L112.757 146.98C112.844 147.037 112.953 147.037 113.04 146.98L150.787 122.403C150.976 122.28 150.976 121.972 150.787 121.849ZM112.899 146.334L75.7195 122.126L112.899 97.9178L150.078 122.126L112.899 146.334Z" fill="white"/>
<path id="Polygon 5 Copy 22_5" fill-rule="evenodd" clip-rule="evenodd" d="M188.221 146.156L150.475 121.579C150.387 121.522 150.279 121.522 150.191 121.579L112.445 146.156C112.256 146.279 112.256 146.587 112.445 146.71L150.191 171.288C150.279 171.345 150.387 171.345 150.475 171.288L188.221 146.71C188.41 146.587 188.41 146.279 188.221 146.156ZM150.333 170.641L113.154 146.433L150.333 122.225L187.512 146.433L150.333 170.641Z" fill="white"/>
<path id="Polygon 5 Copy 23_5" fill-rule="evenodd" clip-rule="evenodd" d="M225.655 170.463L187.909 145.886C187.821 145.829 187.713 145.829 187.625 145.886L149.879 170.463C149.69 170.586 149.69 170.894 149.879 171.017L187.625 195.595C187.713 195.652 187.821 195.652 187.909 195.595L225.655 171.017C225.844 170.894 225.844 170.586 225.655 170.463ZM187.767 194.948L150.588 170.74L187.767 146.532L224.946 170.74L187.767 194.948Z" fill="white"/>
<path id="Polygon 5 Copy 24_5" fill-rule="evenodd" clip-rule="evenodd" d="M263.09 194.77L225.343 170.193C225.256 170.136 225.147 170.136 225.06 170.193L187.313 194.77C187.124 194.893 187.124 195.201 187.313 195.324L225.06 219.902C225.147 219.959 225.256 219.959 225.343 219.902L263.09 195.324C263.279 195.201 263.279 194.893 263.09 194.77ZM225.201 219.255L188.022 195.047L225.201 170.839L262.381 195.047L225.201 219.255Z" fill="white"/>
<path id="Polygon 5 Copy 25_5" fill-rule="evenodd" clip-rule="evenodd" d="M300.524 219.077L262.778 194.5C262.69 194.443 262.582 194.443 262.494 194.5L224.748 219.077C224.559 219.2 224.559 219.508 224.748 219.631L262.494 244.209C262.582 244.266 262.69 244.266 262.778 244.209L300.524 219.631C300.713 219.508 300.713 219.2 300.524 219.077ZM262.636 243.563L225.457 219.354L262.636 195.146L299.815 219.354L262.636 243.563Z" fill="white"/>
<path id="Polygon 5 Copy 26_5" fill-rule="evenodd" clip-rule="evenodd" d="M337.958 243.385L300.212 218.807C300.124 218.75 300.016 218.75 299.928 218.807L262.182 243.385C261.993 243.508 261.993 243.816 262.182 243.939L299.928 268.516C300.016 268.573 300.124 268.573 300.212 268.516L337.958 243.939C338.147 243.816 338.147 243.508 337.958 243.385ZM300.07 267.87L262.891 243.662L300.07 219.454L337.249 243.662L300.07 267.87Z" fill="white"/>
<path id="Polygon 5 Copy 27_5" fill-rule="evenodd" clip-rule="evenodd" d="M375.393 267.692L337.646 243.114C337.559 243.057 337.45 243.057 337.363 243.114L299.616 267.692C299.427 267.815 299.427 268.123 299.616 268.246L337.363 292.823C337.45 292.88 337.559 292.88 337.646 292.823L375.393 268.246C375.582 268.123 375.582 267.815 375.393 267.692ZM337.504 292.177L300.325 267.969L337.504 243.761L374.684 267.969L337.504 292.177Z" fill="white"/>
<path id="Polygon 5 Copy 21_6" fill-rule="evenodd" clip-rule="evenodd" d="M113.352 146.156L75.6062 121.579C75.5185 121.522 75.4104 121.522 75.3226 121.579L37.5764 146.156C37.3873 146.279 37.3873 146.587 37.5764 146.71L75.3226 171.288C75.4104 171.345 75.5185 171.345 75.6062 171.288L113.352 146.71C113.542 146.587 113.542 146.279 113.352 146.156ZM75.4643 170.641L38.2853 146.433L75.4643 122.225L112.643 146.433L75.4643 170.641Z" fill="white"/>
<path id="Polygon 5 Copy 22_6" fill-rule="evenodd" clip-rule="evenodd" d="M150.787 170.463L113.04 145.886C112.953 145.829 112.844 145.829 112.757 145.886L75.0104 170.463C74.8214 170.586 74.8214 170.894 75.0104 171.017L112.757 195.595C112.844 195.652 112.953 195.652 113.04 195.595L150.787 171.017C150.976 170.894 150.976 170.586 150.787 170.463ZM112.899 194.948L75.7195 170.74L112.899 146.532L150.078 170.74L112.899 194.948Z" fill="white"/>
<path id="Polygon 5 Copy 23_6" fill-rule="evenodd" clip-rule="evenodd" d="M188.221 194.77L150.475 170.193C150.387 170.136 150.279 170.136 150.191 170.193L112.445 194.77C112.256 194.893 112.256 195.201 112.445 195.324L150.191 219.902C150.279 219.959 150.387 219.959 150.475 219.902L188.221 195.324C188.41 195.201 188.41 194.893 188.221 194.77ZM150.333 219.255L113.154 195.047L150.333 170.839L187.512 195.047L150.333 219.255Z" fill="white"/>
<path id="Polygon 5 Copy 24_6" fill-rule="evenodd" clip-rule="evenodd" d="M225.655 219.077L187.909 194.5C187.821 194.443 187.713 194.443 187.625 194.5L149.879 219.077C149.69 219.2 149.69 219.508 149.879 219.631L187.625 244.209C187.713 244.266 187.821 244.266 187.909 244.209L225.655 219.631C225.844 219.508 225.844 219.2 225.655 219.077ZM187.767 243.563L150.588 219.354L187.767 195.146L224.946 219.354L187.767 243.563Z" fill="white"/>
<path id="Polygon 5 Copy 25_6" fill-rule="evenodd" clip-rule="evenodd" d="M263.09 243.385L225.343 218.807C225.256 218.75 225.147 218.75 225.06 218.807L187.313 243.385C187.124 243.508 187.124 243.816 187.313 243.939L225.06 268.516C225.147 268.573 225.256 268.573 225.343 268.516L263.09 243.939C263.279 243.816 263.279 243.508 263.09 243.385ZM225.201 267.87L188.022 243.662L225.201 219.454L262.381 243.662L225.201 267.87Z" fill="white"/>
<path id="Polygon 5 Copy 26_6" fill-rule="evenodd" clip-rule="evenodd" d="M300.524 267.692L262.778 243.114C262.69 243.057 262.582 243.057 262.494 243.114L224.748 267.692C224.559 267.815 224.559 268.123 224.748 268.246L262.494 292.823C262.582 292.88 262.69 292.88 262.778 292.823L300.524 268.246C300.713 268.123 300.713 267.815 300.524 267.692ZM262.636 292.177L225.457 267.969L262.636 243.761L299.815 267.969L262.636 292.177Z" fill="white"/>
<path id="Polygon 5 Copy 27_6" fill-rule="evenodd" clip-rule="evenodd" d="M337.958 291.999L300.212 267.421C300.124 267.364 300.016 267.364 299.928 267.421L262.182 291.999C261.993 292.122 261.993 292.43 262.182 292.553L299.928 317.13C300.016 317.187 300.124 317.187 300.212 317.13L337.958 292.553C338.147 292.43 338.147 292.122 337.958 291.999ZM300.07 316.484L262.891 292.276L300.07 268.068L337.249 292.276L300.07 316.484Z" fill="white"/>
<path id="Polygon 5 Copy 21_7" fill-rule="evenodd" clip-rule="evenodd" d="M75.9179 170.463L38.1716 145.886C38.0839 145.829 37.9758 145.829 37.8881 145.886L0.141797 170.463C-0.0472655 170.586 -0.0472655 170.894 0.141797 171.017L37.8881 195.595C37.9758 195.652 38.0839 195.652 38.1716 195.595L75.9179 171.017C76.107 170.894 76.107 170.586 75.9179 170.463ZM0.850798 170.74L38.0299 146.532L75.2089 170.74L38.0299 194.948L0.850798 170.74Z" fill="white"/>
<path id="Polygon 5 Copy 22_7" fill-rule="evenodd" clip-rule="evenodd" d="M113.352 194.77L75.6062 170.193C75.5185 170.136 75.4104 170.136 75.3226 170.193L37.5764 194.77C37.3873 194.893 37.3873 195.201 37.5764 195.324L75.3226 219.902C75.4104 219.959 75.5185 219.959 75.6062 219.902L113.352 195.324C113.542 195.201 113.542 194.893 113.352 194.77ZM75.4643 219.255L38.2853 195.047L75.4643 170.839L112.643 195.047L75.4643 219.255Z" fill="white"/>
<path id="Polygon 5 Copy 23_7" fill-rule="evenodd" clip-rule="evenodd" d="M150.787 219.077L113.04 194.5C112.953 194.443 112.844 194.443 112.757 194.5L75.0104 219.077C74.8214 219.2 74.8214 219.508 75.0104 219.631L112.757 244.209C112.844 244.266 112.953 244.266 113.04 244.209L150.787 219.631C150.976 219.508 150.976 219.2 150.787 219.077ZM112.899 243.563L75.7195 219.354L112.899 195.146L150.078 219.354L112.899 243.563Z" fill="white"/>
<path id="Polygon 5 Copy 24_7" fill-rule="evenodd" clip-rule="evenodd" d="M188.221 243.385L150.475 218.807C150.387 218.75 150.279 218.75 150.191 218.807L112.445 243.385C112.256 243.508 112.256 243.816 112.445 243.939L150.191 268.516C150.279 268.573 150.387 268.573 150.475 268.516L188.221 243.939C188.41 243.816 188.41 243.508 188.221 243.385ZM150.333 267.87L113.154 243.662L150.333 219.454L187.512 243.662L150.333 267.87Z" fill="white"/>
<path id="Polygon 5 Copy 25_7" fill-rule="evenodd" clip-rule="evenodd" d="M225.655 267.692L187.909 243.114C187.821 243.057 187.713 243.057 187.625 243.114L149.879 267.692C149.69 267.815 149.69 268.123 149.879 268.246L187.625 292.823C187.713 292.88 187.821 292.88 187.909 292.823L225.655 268.246C225.844 268.123 225.844 267.815 225.655 267.692ZM187.767 292.177L150.588 267.969L187.767 243.761L224.946 267.969L187.767 292.177Z" fill="white"/>
<path id="Polygon 5 Copy 26_7" fill-rule="evenodd" clip-rule="evenodd" d="M263.09 291.999L225.343 267.421C225.256 267.364 225.147 267.364 225.06 267.421L187.313 291.999C187.124 292.122 187.124 292.43 187.313 292.553L225.06 317.13C225.147 317.187 225.256 317.187 225.343 317.13L263.09 292.553C263.279 292.43 263.279 292.122 263.09 291.999ZM225.201 316.484L188.022 292.276L225.201 268.068L262.381 292.276L225.201 316.484Z" fill="white"/>
<path id="Polygon 5 Copy 27_7" fill-rule="evenodd" clip-rule="evenodd" d="M300.524 316.306L262.778 291.728C262.69 291.671 262.582 291.671 262.494 291.728L224.748 316.306C224.559 316.429 224.559 316.737 224.748 316.86L262.494 341.437C262.582 341.494 262.69 341.494 262.778 341.437L300.524 316.86C300.713 316.737 300.713 316.429 300.524 316.306ZM262.636 340.791L225.457 316.583L262.636 292.375L299.815 316.583L262.636 340.791Z" fill="white"/>
</g>
<path id="Base" d="M262.778 350.994L262.778 340.966L525.13 170.754V179.916C525.319 180.039 262.778 350.994 262.778 350.994Z" fill="url(#paint0_linear_129_180)"/>
<path id="Base_2" d="M262.777 350.994L0.14165 180.47C-0.047412 180.347 0.14165 170.754 0.14165 170.754C0.180611 170.729 262.777 340.966 262.777 340.966V350.994Z" fill="url(#paint1_linear_129_180)"/>
</g>
<defs>
<linearGradient id="paint0_linear_129_180" x1="525.13" y1="243.691" x2="264.443" y2="274.821" gradientUnits="userSpaceOnUse">
<stop stop-color="#B4F1FF"/>
<stop offset="0.604167" stop-color="#EDA3FF"/>
<stop offset="1" stop-color="#FDCAE4"/>
</linearGradient>
<linearGradient id="paint1_linear_129_180" x1="262.777" y1="243.691" x2="1.72556" y2="274.909" gradientUnits="userSpaceOnUse">
<stop stop-color="#B4F1FF"/>
<stop offset="0.604167" stop-color="#EDA3FF"/>
<stop offset="1" stop-color="#FDCAE4"/>
</linearGradient>
</defs>
</svg>
