<svg width="107" height="82" viewBox="0 0 107 82" fill="none" xmlns="http://www.w3.org/2000/svg">
<path fill-rule="evenodd" clip-rule="evenodd" d="M53.5491 0.5L105.096 26.2853V54.7253L53.5491 28.9515V0.5Z" fill="url(#paint0_linear_47_449)" fill-opacity="0.6"/>
<path fill-rule="evenodd" clip-rule="evenodd" d="M53.5371 0.505859L2.00227 26.2852V54.7254L53.5491 28.9516L53.5371 0.505859Z" fill="url(#paint1_linear_47_449)" fill-opacity="0.6"/>
<path fill-rule="evenodd" clip-rule="evenodd" d="M2.00122 54.7254L53.548 80.5L105.097 54.7254L53.548 28.9516L2.00122 54.7254Z" fill="white" fill-opacity="0.1" stroke="url(#paint2_linear_47_449)" stroke-width="1.5"/>
<path d="M66.8801 44.1683L73.8576 47.6565" stroke="url(#paint3_linear_47_449)" stroke-width="1.5"/>
<path d="M88.2097 54.8334L81.0137 58.3446L73.9031 54.7895L81.1011 51.2783" stroke="url(#paint4_linear_47_449)" stroke-width="1.5"/>
<path d="M45.5503 40.6132L52.6609 44.1683L59.684 40.6566L52.6609 37.0583" stroke="url(#paint5_linear_47_449)" stroke-width="1.5"/>
<path d="M38.4399 51.2783L45.5505 47.7234L38.4399 44.1683L31.3313 47.7234" stroke="url(#paint6_linear_47_449)" stroke-width="1.5"/>
<path d="M45.5503 61.9434L52.6609 58.3883L45.5503 54.8334L52.6609 51.2783" stroke="url(#paint7_linear_47_449)" stroke-width="1.5"/>
<path d="M31.3295 54.9669L24.2209 51.412L17.1104 54.9669L31.1964 62.0102L38.3726 58.4217" stroke="url(#paint8_linear_47_449)" stroke-width="1.5"/>
<path d="M59.7711 47.724L66.8814 51.2789L59.6841 54.8603L66.8407 58.3215" stroke="url(#paint9_linear_47_449)" stroke-width="1.5"/>
<path d="M45.417 69.1202L52.6607 65.4984L59.6839 69.0966L66.8799 65.4984" stroke="url(#paint10_linear_47_449)" stroke-width="1.5"/>
<ellipse cx="53.3283" cy="50.9433" rx="2.81974" ry="1.41414" fill="white"/>
<ellipse cx="45.7111" cy="61.5982" rx="2.81974" ry="1.41414" fill="white"/>
<ellipse cx="38.7555" cy="58.5716" rx="2.81974" ry="1.41414" fill="white"/>
<ellipse cx="31.1542" cy="54.9264" rx="2.81974" ry="1.41414" fill="white"/>
<ellipse cx="31.8556" cy="47.6519" rx="2.81974" ry="1.41414" fill="white"/>
<ellipse cx="39.1073" cy="51.2682" rx="2.81974" ry="1.41414" fill="white"/>
<ellipse cx="45.894" cy="40.7362" rx="2.81974" ry="1.41414" fill="white"/>
<ellipse cx="52.8893" cy="37.334" rx="2.81974" ry="1.41414" fill="white"/>
<ellipse cx="67.2338" cy="44.1604" rx="2.81974" ry="1.41414" fill="white"/>
<ellipse cx="74.2785" cy="47.3556" rx="2.81974" ry="1.41414" fill="white"/>
<ellipse cx="81.258" cy="51.0555" rx="2.81974" ry="1.41414" fill="white"/>
<ellipse cx="88.5158" cy="54.8368" rx="2.81974" ry="1.41414" fill="white"/>
<ellipse cx="66.5836" cy="58.1274" rx="2.81974" ry="1.41414" fill="white"/>
<ellipse cx="59.8905" cy="47.8353" rx="2.81974" ry="1.41414" fill="white"/>
<ellipse cx="66.8183" cy="65.6688" rx="2.81974" ry="1.41414" fill="white"/>
<ellipse cx="45.3871" cy="69.0139" rx="2.81974" ry="1.41414" fill="white"/>
<path d="M39.6696 5.94107L46.7694 3.22417L48.8092 9.99852" stroke="url(#paint11_linear_47_449)" stroke-width="1.5"/>
<path d="M2 46.3885L10.0168 32.696L18.3635 34.9357L26.4757 20.1779L35.5597 24.238L46.1759 4.22382" stroke="url(#paint12_linear_47_449)" stroke-width="1.5"/>
<defs>
<linearGradient id="paint0_linear_47_449" x1="82.0484" y1="44.531" x2="93.8758" y2="20.4189" gradientUnits="userSpaceOnUse">
<stop stop-color="#00C9C9" stop-opacity="0.392157"/>
<stop offset="1" stop-color="#00C9C9" stop-opacity="0.01"/>
</linearGradient>
<linearGradient id="paint1_linear_47_449" x1="24.8915" y1="44.7334" x2="13.0661" y2="20.6202" gradientUnits="userSpaceOnUse">
<stop stop-color="#00C9C9" stop-opacity="0.392157"/>
<stop offset="1" stop-color="#00C9C9" stop-opacity="0.01"/>
</linearGradient>
<linearGradient id="paint2_linear_47_449" x1="105.097" y1="49.8113" x2="3.91876" y2="66.4125" gradientUnits="userSpaceOnUse">
<stop stop-color="#B4F1FF"/>
<stop offset="0.604167" stop-color="#EDA3FF"/>
<stop offset="1" stop-color="#FDCAE4"/>
</linearGradient>
<linearGradient id="paint3_linear_47_449" x1="73.8576" y1="45.5799" x2="67.01" y2="46.7036" gradientUnits="userSpaceOnUse">
<stop stop-color="#B4F1FF"/>
<stop offset="0.604167" stop-color="#EDA3FF"/>
<stop offset="1" stop-color="#FDCAE4"/>
</linearGradient>
<linearGradient id="paint4_linear_47_449" x1="88.2097" y1="54.1378" x2="74.1783" y2="56.4684" gradientUnits="userSpaceOnUse">
<stop stop-color="#B4F1FF"/>
<stop offset="0.604167" stop-color="#EDA3FF"/>
<stop offset="1" stop-color="#FDCAE4"/>
</linearGradient>
<linearGradient id="paint5_linear_47_449" x1="59.684" y1="39.9355" x2="45.8088" y2="42.1984" gradientUnits="userSpaceOnUse">
<stop stop-color="#B4F1FF"/>
<stop offset="0.604167" stop-color="#EDA3FF"/>
<stop offset="1" stop-color="#FDCAE4"/>
</linearGradient>
<linearGradient id="paint6_linear_47_449" x1="45.5505" y1="47.0455" x2="31.5957" y2="49.3351" gradientUnits="userSpaceOnUse">
<stop stop-color="#B4F1FF"/>
<stop offset="0.604167" stop-color="#EDA3FF"/>
<stop offset="1" stop-color="#FDCAE4"/>
</linearGradient>
<linearGradient id="paint7_linear_47_449" x1="52.6609" y1="55.5941" x2="45.5161" y2="55.9849" gradientUnits="userSpaceOnUse">
<stop stop-color="#B4F1FF"/>
<stop offset="0.604167" stop-color="#EDA3FF"/>
<stop offset="1" stop-color="#FDCAE4"/>
</linearGradient>
<linearGradient id="paint8_linear_47_449" x1="38.3726" y1="55.7007" x2="17.5092" y2="59.1346" gradientUnits="userSpaceOnUse">
<stop stop-color="#B4F1FF"/>
<stop offset="0.604167" stop-color="#EDA3FF"/>
<stop offset="1" stop-color="#FDCAE4"/>
</linearGradient>
<linearGradient id="paint9_linear_47_449" x1="59.6739" y1="54.0897" x2="66.9459" y2="53.5894" gradientUnits="userSpaceOnUse">
<stop stop-color="#B4F1FF"/>
<stop offset="0.604167" stop-color="#EDA3FF"/>
<stop offset="1" stop-color="#FDCAE4"/>
</linearGradient>
<linearGradient id="paint10_linear_47_449" x1="66.8799" y1="66.964" x2="49.3843" y2="75.4697" gradientUnits="userSpaceOnUse">
<stop stop-color="#B4F1FF"/>
<stop offset="0.604167" stop-color="#EDA3FF"/>
<stop offset="1" stop-color="#FDCAE4"/>
</linearGradient>
<linearGradient id="paint11_linear_47_449" x1="47.5948" y1="5.9655" x2="40.5268" y2="8.78999" gradientUnits="userSpaceOnUse">
<stop stop-color="#B4F1FF"/>
<stop offset="0.604167" stop-color="#EDA3FF"/>
<stop offset="1" stop-color="#FDCAE4"/>
</linearGradient>
<linearGradient id="paint12_linear_47_449" x1="46.1759" y1="21.2863" x2="1.98099" y2="25.085" gradientUnits="userSpaceOnUse">
<stop stop-color="#B4F1FF"/>
<stop offset="0.604167" stop-color="#EDA3FF"/>
<stop offset="1" stop-color="#FDCAE4"/>
</linearGradient>
</defs>
</svg>
